<?xml version="1.0" encoding="UTF-8" standalone="no"?>
<!-- Created with Inkscape (http://www.inkscape.org/) -->

<svg
   width="50.799999mm"
   height="128.5mm"
   viewBox="0 0 50.799999 128.5"
   version="1.1"
   id="svg1"
   inkscape:version="1.4.2 (2aeb623e1d, 2025-05-12)"
   sodipodi:docname="Compressor.svg"
   xmlns:inkscape="http://www.inkscape.org/namespaces/inkscape"
   xmlns:sodipodi="http://sodipodi.sourceforge.net/DTD/sodipodi-0.dtd"
   xmlns="http://www.w3.org/2000/svg"
   xmlns:svg="http://www.w3.org/2000/svg">
  <sodipodi:namedview
     id="namedview1"
     pagecolor="#ffffff"
     bordercolor="#000000"
     borderopacity="0.25"
     inkscape:showpageshadow="2"
     inkscape:pageopacity="0.0"
     inkscape:pagecheckerboard="0"
     inkscape:deskcolor="#d1d1d1"
     inkscape:document-units="mm"
     inkscape:zoom="1.78"
     inkscape:cx="118.25843"
     inkscape:cy="289.60674"
     inkscape:window-width="1850"
     inkscape:window-height="1016"
     inkscape:window-x="70"
     inkscape:window-y="27"
     inkscape:window-maximized="1"
     inkscape:current-layer="layer2" />
  <defs
     id="defs1">
    <linearGradient
       id="linearGradient6"
       inkscape:swatch="gradient">
      <stop
         style="stop-color:#ffffff;stop-opacity:1;"
         offset="0"
         id="stop6" />
      <stop
         style="stop-color:#ffffff;stop-opacity:0;"
         offset="1"
         id="stop7" />
    </linearGradient>
  </defs>
  <g
     inkscape:label="Layer 1"
     inkscape:groupmode="layer"
     id="layer1"
     inkscape:export-filename="Compressor.svg"
     inkscape:export-xdpi="96"
     inkscape:export-ydpi="96">
    <rect
       style="fill:#333333;stroke:#ffffff;stroke-width:0.299278;stroke-linecap:round;stroke-linejoin:round;paint-order:fill markers stroke"
       id="rect1"
       width="50.500725"
       height="128.20073"
       x="0.149639"
       y="0.149639"
       ry="0"
       sodipodi:insensitive="true" />
    <g
       inkscape:groupmode="layer"
       id="layer2"
       inkscape:label="components">
      <circle
         style="fill:#00ff00;stroke:#000000;stroke-width:0.266958;stroke-linecap:round;stroke-linejoin:round;paint-order:fill markers stroke;fill-opacity:0;stroke-opacity:1"
         id="path3"
         cx="8.96875"
         cy="103.96875"
         r="3.8352709"
         inkscape:label="input" />
      <ellipse
         style="fill:#0000ff;stroke:#000000;stroke-width:0.217952;stroke-linecap:round;stroke-linejoin:round;paint-order:fill markers stroke;fill-opacity:0;stroke-opacity:1"
         id="path4"
         cx="38.96875"
         cy="103.96875"
         rx="3.8597739"
         ry="3.8597741"
         inkscape:label="output" />
      <circle
         style="fill:#ff0000;fill-opacity:0;stroke:#000000;stroke-width:0.222162;stroke-linecap:round;stroke-linejoin:round;stroke-dasharray:none;stroke-opacity:1;paint-order:fill markers stroke"
         id="path2"
         cx="25.3995"
         cy="68.466499"
         inkscape:label="ratio"
         r="6.8554192" />
      <circle
         style="fill:#ff0000;fill-opacity:0;stroke:#000000;stroke-width:0.266502;stroke-linecap:round;stroke-linejoin:round;stroke-opacity:1;paint-order:fill markers stroke"
         id="path1"
         cx="25.3995"
         cy="30.466499"
         inkscape:label="ampl"
         r="6.8332491" />
    </g>
    <path
       d="M 13.066266,7.8250339 V 8.3386978 Q 12.820286,8.1095989 12.540544,7.9962552 12.263214,7.8829115 11.94971,7.8829115 q -0.617361,0 -0.945334,0.3786161 -0.327973,0.3762045 -0.327973,1.0900285 0,0.7114119 0.327973,1.0900289 0.327973,0.376204 0.945334,0.376204 0.313504,0 0.590834,-0.113344 0.279742,-0.113343 0.525722,-0.342442 v 0.508841 q -0.255626,0.173632 -0.542603,0.260449 -0.284565,0.08682 -0.602891,0.08682 -0.817522,0 -1.287777,-0.499195 -0.470256,-0.501605 -0.470256,-1.3673579 0,-0.8681643 0.470256,-1.3673587 0.470255,-0.5016061 1.287777,-0.5016061 0.32315,0 0.607715,0.086817 0.286976,0.084405 0.537779,0.2556256 z m 2.04432,0.9332766 q -0.356912,0 -0.564307,0.2797418 -0.207395,0.2773302 -0.207395,0.7620553 0,0.4847254 0.204983,0.7644664 0.207395,0.277331 0.566719,0.277331 0.3545,0 0.561895,-0.279742 0.207395,-0.279742 0.207395,-0.7620554 0,-0.4799019 -0.207395,-0.7596437 -0.207395,-0.2821534 -0.561895,-0.2821534 z m 0,-0.3762045 q 0.578776,0 0.909161,0.3762045 0.330384,0.3762045 0.330384,1.0417971 0,0.6631814 -0.330384,1.0417974 -0.330385,0.376204 -0.909161,0.376204 -0.581188,0 -0.911573,-0.376204 -0.327973,-0.378616 -0.327973,-1.0417974 0,-0.6655926 0.327973,-1.0417971 0.330385,-0.3762045 0.911573,-0.3762045 z m 4.342543,0.5835993 q 0.166398,-0.2990344 0.397909,-0.4413168 0.23151,-0.1422825 0.545014,-0.1422825 0.422024,0 0.651123,0.2966228 0.229099,0.2942112 0.229099,0.8392254 v 1.6302198 h -0.44614 V 9.5324236 q 0,-0.3882623 -0.137459,-0.5763646 -0.13746,-0.1881022 -0.419613,-0.1881022 -0.344854,0 -0.545014,0.2290989 -0.20016,0.2290989 -0.20016,0.6245959 v 1.5265224 h -0.44614 V 9.5324236 q 0,-0.3906739 -0.13746,-0.5763646 -0.137459,-0.1881022 -0.424436,-0.1881022 -0.340031,0 -0.540191,0.2315104 -0.20016,0.2290989 -0.20016,0.6221844 v 1.5265224 h -0.44614 V 8.4472183 h 0.44614 V 8.866831 Q 17.93143,8.6184396 18.143648,8.5002728 18.355866,8.382106 18.647666,8.382106 q 0.294211,0 0.499194,0.1495172 0.207395,0.1495171 0.306269,0.4340821 z m 3.402033,1.7773247 v 1.432472 h -0.44614 V 8.4472183 h 0.44614 V 8.8571847 Q 22.995033,8.616028 23.207251,8.5002728 23.42188,8.382106 23.718503,8.382106 q 0.49196,0 0.798229,0.3906739 0.308681,0.3906739 0.308681,1.0273277 0,0.6366534 -0.308681,1.0273274 -0.306269,0.390674 -0.798229,0.390674 -0.296623,0 -0.511252,-0.115755 -0.212218,-0.118167 -0.352089,-0.359324 z m 1.509641,-0.9429224 q 0,-0.4895482 -0.202571,-0.7668784 -0.200161,-0.2797418 -0.552249,-0.2797418 -0.352089,0 -0.554661,0.2797418 -0.20016,0.2773302 -0.20016,0.7668784 0,0.4895484 0.20016,0.7692904 0.202572,0.27733 0.554661,0.27733 0.352088,0 0.552249,-0.27733 0.202571,-0.279742 0.202571,-0.7692904 z M 27.39063,8.8620079 q -0.07476,-0.043408 -0.163986,-0.062701 -0.08682,-0.021704 -0.192926,-0.021704 -0.376204,0 -0.578776,0.2459799 -0.20016,0.2435683 -0.20016,0.7017661 v 1.4228251 h -0.44614 V 8.4472183 h 0.44614 V 8.866831 q 0.139871,-0.2459799 0.364147,-0.3641467 0.224276,-0.1205783 0.545014,-0.1205783 0.04582,0 0.101286,0.00723 0.05547,0.00482 0.12299,0.016881 z m 2.931776,0.824756 V 9.903805 H 28.28222 q 0.02894,0.458198 0.274919,0.699355 0.248391,0.238745 0.689708,0.238745 0.255626,0 0.494372,-0.0627 0.241156,-0.0627 0.47749,-0.188102 v 0.419612 q -0.238745,0.101286 -0.489548,0.154341 -0.250803,0.05305 -0.508841,0.05305 -0.6463,0 -1.024916,-0.376205 -0.376205,-0.376204 -0.376205,-1.0176814 0,-0.6631811 0.356912,-1.0514434 0.359324,-0.3906739 0.967039,-0.3906739 0.545014,0 0.860929,0.3520888 0.318327,0.3496773 0.318327,0.9525688 z M 29.878678,9.5565393 q -0.0048,-0.3641467 -0.204983,-0.5811877 -0.197749,-0.2170411 -0.525722,-0.2170411 -0.371381,0 -0.595657,0.2098063 -0.221864,0.2098064 -0.255626,0.5908341 z M 33.037144,8.5268 v 0.4196127 q -0.188103,-0.096463 -0.390674,-0.144694 -0.202572,-0.048231 -0.419613,-0.048231 -0.330385,0 -0.496783,0.1012858 -0.163987,0.1012858 -0.163987,0.3038575 0,0.1543403 0.118167,0.2435683 0.118167,0.086816 0.475079,0.1663981 l 0.151929,0.033762 q 0.472667,0.1012858 0.670415,0.2869765 0.200161,0.1832791 0.200161,0.5136641 0,0.376204 -0.299035,0.595657 -0.296623,0.219453 -0.817521,0.219453 -0.217041,0 -0.453375,-0.04341 -0.233922,-0.041 -0.494371,-0.125402 v -0.458198 q 0.24598,0.127813 0.484725,0.192925 0.238745,0.0627 0.472667,0.0627 0.313504,0 0.482314,-0.106109 0.168809,-0.10852 0.168809,-0.303857 0,-0.180868 -0.12299,-0.277331 -0.120578,-0.09646 -0.532956,-0.1856903 l -0.15434,-0.036173 q -0.412378,-0.086817 -0.595657,-0.2652732 -0.18328,-0.1808675 -0.18328,-0.4943713 0,-0.3810276 0.270096,-0.5884224 0.270096,-0.2073948 0.766878,-0.2073948 0.24598,0 0.463021,0.036174 0.217041,0.036174 0.400321,0.10852 z m 2.837724,0 v 0.4196127 q -0.188102,-0.096463 -0.390674,-0.144694 -0.202571,-0.048231 -0.419612,-0.048231 -0.330385,0 -0.496783,0.1012858 -0.163987,0.1012858 -0.163987,0.3038575 0,0.1543403 0.118167,0.2435683 0.118167,0.086816 0.475079,0.1663981 l 0.151928,0.033762 q 0.472668,0.1012858 0.670416,0.2869765 0.20016,0.1832791 0.20016,0.5136641 0,0.376204 -0.299034,0.595657 -0.296623,0.219453 -0.817521,0.219453 -0.217041,0 -0.453375,-0.04341 -0.233922,-0.041 -0.494371,-0.125402 v -0.458198 q 0.245979,0.127813 0.484725,0.192925 0.238745,0.0627 0.472667,0.0627 0.313504,0 0.482313,-0.106109 0.16881,-0.10852 0.16881,-0.303857 0,-0.180868 -0.12299,-0.277331 -0.120578,-0.09646 -0.532956,-0.1856903 L 34.753489,9.9375669 Q 34.341111,9.8507505 34.157832,9.6722945 33.974553,9.491427 33.974553,9.1779232 q 0,-0.3810276 0.270096,-0.5884224 0.270095,-0.2073948 0.766878,-0.2073948 0.24598,0 0.463021,0.036174 0.217041,0.036174 0.40032,0.10852 z m 2.162486,0.2315105 q -0.356912,0 -0.564307,0.2797418 -0.207395,0.2773302 -0.207395,0.7620553 0,0.4847254 0.204984,0.7644664 0.207395,0.277331 0.566718,0.277331 0.3545,0 0.561895,-0.279742 0.207395,-0.279742 0.207395,-0.7620554 0,-0.4799019 -0.207395,-0.7596437 -0.207395,-0.2821534 -0.561895,-0.2821534 z m 0,-0.3762045 q 0.578776,0 0.909161,0.3762045 0.330385,0.3762045 0.330385,1.0417971 0,0.6631814 -0.330385,1.0417974 -0.330385,0.376204 -0.909161,0.376204 -0.581188,0 -0.911572,-0.376204 -0.327974,-0.378616 -0.327974,-1.0417974 0,-0.6655926 0.327974,-1.0417971 0.330384,-0.3762045 0.911572,-0.3762045 z m 3.804765,0.4799019 q -0.07476,-0.043408 -0.163987,-0.062701 -0.08682,-0.021704 -0.192925,-0.021704 -0.376205,0 -0.578776,0.2459799 -0.20016,0.2435683 -0.20016,0.7017661 v 1.4228251 h -0.44614 V 8.4472183 h 0.44614 V 8.866831 q 0.13987,-0.2459799 0.364146,-0.3641467 0.224276,-0.1205783 0.545014,-0.1205783 0.04582,0 0.101286,0.00723 0.05547,0.00482 0.12299,0.016881 z"
       id="text1"
       style="font-size:4.93889px;line-height:1.5;-inkscape-font-specification:sans-serif;text-align:center;letter-spacing:0.264583px;text-anchor:middle;fill:#f9f9f9;stroke:#ffffff;stroke-width:0.3;stroke-linecap:round;stroke-linejoin:round;paint-order:fill markers stroke"
       aria-label="Compressor" />
    <path
       style="font-size:4.9389px;line-height:1.5;-inkscape-font-specification:sans-serif;text-align:center;letter-spacing:0.264583px;text-anchor:middle;fill:#ffffff;stroke:#ffffff;stroke-width:0.27;stroke-linecap:square;stroke-linejoin:bevel;paint-order:fill markers stroke"
       d="m 20.657884,42.661259 -0.66077,1.791798 h 1.323953 z m -0.274919,-0.479903 h 0.55225 l 1.372185,3.600478 h -0.50643 l -0.327974,-0.923633 h -1.622988 l -0.327974,0.923633 h -0.513665 z m 4.798339,1.418005 q 0.166398,-0.299035 0.397909,-0.441318 0.231511,-0.142283 0.545016,-0.142283 0.422025,0 0.651124,0.296624 0.229099,0.294211 0.229099,0.839227 v 1.630223 h -0.44614 V 44.16608 q 0,-0.388263 -0.13746,-0.576366 -0.13746,-0.188102 -0.419614,-0.188102 -0.344854,0 -0.545015,0.229099 -0.20016,0.2291 -0.20016,0.624597 v 1.526526 H 24.809922 V 44.16608 q 0,-0.390674 -0.13746,-0.576366 -0.13746,-0.188102 -0.424437,-0.188102 -0.340031,0 -0.540192,0.231511 -0.20016,0.229099 -0.20016,0.622185 v 1.526526 h -0.446141 v -2.700961 h 0.446141 v 0.419613 q 0.151929,-0.248392 0.364147,-0.366559 0.212218,-0.118167 0.504019,-0.118167 0.294212,0 0.499195,0.149518 0.207395,0.149517 0.30627,0.434083 z m 3.402038,1.777329 v 1.432473 h -0.44614 v -3.72829 h 0.44614 v 0.409967 q 0.139872,-0.241157 0.35209,-0.356913 0.21463,-0.118167 0.511253,-0.118167 0.491961,0 0.798231,0.390675 0.308681,0.390675 0.308681,1.02733 0,0.636655 -0.308681,1.02733 -0.30627,0.390674 -0.798231,0.390674 -0.296623,0 -0.511253,-0.115755 -0.212218,-0.118167 -0.35209,-0.359324 z m 1.509645,-0.942925 q 0,-0.489549 -0.202572,-0.76688 -0.200161,-0.279743 -0.55225,-0.279743 -0.35209,0 -0.554662,0.279743 -0.200161,0.277331 -0.200161,0.76688 0,0.489549 0.200161,0.769291 0.202572,0.277331 0.554662,0.277331 0.352089,0 0.55225,-0.277331 0.202572,-0.279742 0.202572,-0.769291 z m 1.460722,-2.404338 h 0.44373 v 3.752407 h -0.44373 z"
       id="text5"
       aria-label="Ampl" />
    <path
       style="font-size:4.9389px;line-height:1.5;-inkscape-font-specification:sans-serif;text-align:center;letter-spacing:0.264583px;text-anchor:middle;fill:#ffffff;stroke:#ffffff;stroke-width:0.27;stroke-linecap:round;stroke-linejoin:round;paint-order:fill markers stroke"
       d="m 20.29484,83.038027 q 0.156752,0.05306 0.303858,0.226688 0.149518,0.173633 0.299035,0.477491 l 0.494373,0.983922 h -0.523312 l -0.46061,-0.923633 Q 20.229728,83.44076 20.060918,83.322593 19.894519,83.204426 19.605131,83.204426 h -0.530546 v 1.521702 H 18.587447 V 81.12565 h 1.099677 q 0.617362,0 0.921221,0.258038 0.303858,0.258039 0.303858,0.778938 0,0.340032 -0.159164,0.564308 -0.156752,0.224276 -0.458199,0.311093 z m -1.220255,-1.512056 v 1.278134 h 0.612539 q 0.35209,0 0.530546,-0.161576 0.180868,-0.163987 0.180868,-0.479903 0,-0.315916 -0.180868,-0.475079 -0.178456,-0.161576 -0.530546,-0.161576 z m 4.308789,1.842441 q -0.53778,0 -0.745176,0.122991 -0.207395,0.12299 -0.207395,0.419613 0,0.236334 0.154341,0.376205 0.156752,0.13746 0.424436,0.13746 0.368971,0 0.590836,-0.26045 0.224276,-0.262861 0.224276,-0.696944 v -0.09887 z m 0.885047,-0.183279 v 1.540995 H 23.824692 V 84.31616 q -0.151929,0.245981 -0.378617,0.364148 -0.226688,0.115755 -0.554662,0.115755 -0.41479,0 -0.66077,-0.231511 -0.243569,-0.233922 -0.243569,-0.624597 0,-0.455787 0.303858,-0.687298 0.30627,-0.231511 0.911574,-0.231511 h 0.622186 v -0.04341 q 0,-0.30627 -0.202572,-0.472668 -0.200161,-0.16881 -0.564308,-0.16881 -0.231511,0 -0.450964,0.05547 -0.219453,0.05547 -0.422025,0.166398 v -0.409967 q 0.243569,-0.09405 0.472668,-0.139871 0.229099,-0.04823 0.446141,-0.04823 0.586012,0 0.875401,0.303858 0.289388,0.303858 0.289388,0.921221 z m 1.617475,-1.926846 v 0.76688 h 0.913986 v 0.344855 h -0.913986 v 1.466235 q 0,0.330386 0.08923,0.424437 0.09164,0.09405 0.368971,0.09405 h 0.455787 v 0.371383 h -0.455787 q -0.513665,0 -0.709002,-0.190515 -0.195338,-0.192925 -0.195338,-0.699356 v -1.466235 h -0.325562 v -0.344855 h 0.325562 v -0.76688 z m 1.76217,0.76688 h 0.443729 v 2.700961 h -0.443729 z m 0,-1.051446 h 0.443729 v 0.561897 h -0.443729 z m 2.683389,1.362539 q -0.356912,0 -0.564307,0.279742 -0.207396,0.277331 -0.207396,0.762057 0,0.484726 0.204984,0.764468 0.207395,0.277331 0.566719,0.277331 0.354502,0 0.561897,-0.279742 0.207395,-0.279743 0.207395,-0.762057 0,-0.479903 -0.207395,-0.759646 -0.207395,-0.282153 -0.561897,-0.282153 z m 0,-0.376206 q 0.578778,0 0.909163,0.376206 0.330386,0.376205 0.330386,1.041799 0,0.663182 -0.330386,1.041799 -0.330385,0.376205 -0.909163,0.376205 -0.581188,0 -0.911574,-0.376205 -0.327974,-0.378617 -0.327974,-1.041799 0,-0.665594 0.327974,-1.041799 0.330386,-0.376206 0.911574,-0.376206 z"
       id="text6"
       aria-label="Ratio" />
    <path
       d="m 2.9486518,112.94276 h 0.4437293 v 2.70096 H 2.9486518 Z m 0,-1.05144 h 0.4437293 v 0.56189 H 2.9486518 Z m 3.8819414,2.12218 v 1.63022 H 6.3868639 v -1.61575 q 0,-0.38344 -0.1495174,-0.57396 -0.1495175,-0.19051 -0.4485525,-0.19051 -0.3593242,0 -0.5667195,0.2291 -0.2073952,0.2291 -0.2073952,0.6246 v 1.52652 H 4.5685385 v -2.70096 h 0.4461408 v 0.41962 q 0.1591638,-0.24357 0.3737937,-0.36415 0.2170415,-0.12058 0.4991955,-0.12058 0.4654334,0 0.7041791,0.28939 0.2387456,0.28697 0.2387456,0.84646 z m 1.5788899,1.22508 v 1.43247 H 7.9633422 v -3.72829 h 0.4461409 v 0.40997 q 0.1398712,-0.24116 0.3520895,-0.35691 0.21463,-0.11817 0.5112534,-0.11817 0.4919607,0 0.79823,0.39067 0.308682,0.39068 0.308682,1.02733 0,0.63666 -0.308682,1.02733 -0.3062693,0.39068 -0.79823,0.39068 -0.2966234,0 -0.5112534,-0.11576 -0.2122183,-0.11816 -0.3520895,-0.35932 z m 1.5096442,-0.94293 q 0,-0.48955 -0.202572,-0.76688 -0.2001605,-0.27974 -0.5522501,-0.27974 -0.3520895,0 -0.5546616,0.27974 -0.2001605,0.27733 -0.2001605,0.76688 0,0.48955 0.2001605,0.7693 0.2025721,0.27733 0.5546616,0.27733 0.3520896,0 0.5522501,-0.27733 0.202572,-0.27975 0.202572,-0.7693 z m 1.4149027,0.28216 v -1.63505 h 0.443729 v 1.61817 q 0,0.38344 0.149518,0.57636 0.149517,0.19052 0.448552,0.19052 0.359325,0 0.56672,-0.2291 0.209807,-0.2291 0.209807,-0.6246 v -1.53135 h 0.443729 v 2.70096 h -0.443729 v -0.41479 q -0.161576,0.24598 -0.376206,0.36656 -0.212218,0.11817 -0.494372,0.11817 -0.465433,0 -0.706591,-0.28939 -0.241157,-0.28939 -0.241157,-0.84646 z m 1.116558,-1.70016 z m 2.762972,-0.70177 v 0.76688 h 0.913986 v 0.34486 H 15.21356 v 1.46623 q 0,0.33039 0.08923,0.42444 0.09164,0.094 0.368971,0.094 h 0.455787 v 0.37138 h -0.455787 q -0.513665,0 -0.709002,-0.19051 -0.195338,-0.19293 -0.195338,-0.69936 v -1.46623 h -0.325562 v -0.34486 h 0.325562 v -0.76688 z"
       id="text15"
       style="font-size:4.9389px;line-height:1.5;-inkscape-font-specification:sans-serif;text-align:center;letter-spacing:0.264583px;text-anchor:middle;fill:#f9f9f9;stroke:#ffffff;stroke-width:0.1;stroke-linecap:square;stroke-linejoin:bevel;paint-order:fill markers stroke"
       aria-label="input" />
    <path
       d="m 30.90659,112.65929 q -0.356913,0 -0.564308,0.27974 -0.207396,0.27733 -0.207396,0.76206 0,0.48472 0.204984,0.76447 0.207395,0.27733 0.56672,0.27733 0.354501,0 0.561896,-0.27975 0.207395,-0.27974 0.207395,-0.76205 0,-0.47991 -0.207395,-0.75965 -0.207395,-0.28215 -0.561896,-0.28215 z m 0,-0.37621 q 0.578777,0 0.909162,0.37621 0.330386,0.3762 0.330386,1.0418 0,0.66318 -0.330386,1.0418 -0.330385,0.3762 -0.909162,0.3762 -0.581189,0 -0.911575,-0.3762 -0.327974,-0.37862 -0.327974,-1.0418 0,-0.6656 0.327974,-1.0418 0.330386,-0.37621 0.911575,-0.37621 z m 2.19384,1.70016 v -1.63504 h 0.44373 v 1.61816 q 0,0.38344 0.149517,0.57637 0.149518,0.19051 0.448553,0.19051 0.359324,0 0.566719,-0.2291 0.209807,-0.2291 0.209807,-0.6246 v -1.53134 h 0.443729 v 2.70096 h -0.443729 v -0.41479 q -0.161576,0.24598 -0.376205,0.36655 -0.212219,0.11817 -0.494373,0.11817 -0.465433,0 -0.70659,-0.28939 -0.241158,-0.28939 -0.241158,-0.84646 z m 1.116558,-1.70016 z m 2.762972,-0.70176 v 0.76688 h 0.913986 v 0.34485 H 36.97996 v 1.46624 q 0,0.33038 0.08923,0.42443 0.09164,0.094 0.36897,0.094 h 0.455787 v 0.37139 h -0.455787 q -0.513665,0 -0.709002,-0.19052 -0.195338,-0.19292 -0.195338,-0.69935 v -1.46624 h -0.325562 v -0.34485 h 0.325562 v -0.76688 z m 2.191429,3.06269 v 1.43248 h -0.446141 v -3.72829 h 0.446141 v 0.40996 q 0.139871,-0.24115 0.35209,-0.35691 0.21463,-0.11817 0.511253,-0.11817 0.491961,0 0.79823,0.39068 0.308682,0.39067 0.308682,1.02733 0,0.63665 -0.308682,1.02733 -0.306269,0.39067 -0.79823,0.39067 -0.296623,0 -0.511253,-0.11575 -0.212219,-0.11817 -0.35209,-0.35933 z m 1.509644,-0.94292 q 0,-0.48955 -0.202572,-0.76688 -0.20016,-0.27975 -0.55225,-0.27975 -0.352089,0 -0.554661,0.27975 -0.200161,0.27733 -0.200161,0.76688 0,0.48955 0.200161,0.76929 0.202572,0.27733 0.554661,0.27733 0.35209,0 0.55225,-0.27733 0.202572,-0.27974 0.202572,-0.76929 z m 1.414904,0.28215 v -1.63504 h 0.443729 v 1.61816 q 0,0.38344 0.149518,0.57637 0.149517,0.19051 0.448552,0.19051 0.359325,0 0.56672,-0.2291 0.209807,-0.2291 0.209807,-0.6246 v -1.53134 h 0.443729 v 2.70096 h -0.443729 v -0.41479 q -0.161576,0.24598 -0.376206,0.36655 -0.212218,0.11817 -0.494372,0.11817 -0.465433,0 -0.706591,-0.28939 -0.241157,-0.28939 -0.241157,-0.84646 z m 1.116558,-1.70016 z m 2.762972,-0.70176 v 0.76688 h 0.913986 v 0.34485 h -0.913986 v 1.46624 q 0,0.33038 0.08923,0.42443 0.09164,0.094 0.368971,0.094 h 0.455787 v 0.37139 h -0.455787 q -0.513665,0 -0.709002,-0.19052 -0.195338,-0.19292 -0.195338,-0.69935 v -1.46624 h -0.325562 v -0.34485 h 0.325562 v -0.76688 z"
       id="text16"
       style="font-size:4.9389px;line-height:1.5;-inkscape-font-specification:sans-serif;text-align:center;letter-spacing:0.264583px;text-anchor:middle;fill:#f9f9f9;stroke:#ffffff;stroke-width:0.1;stroke-linecap:square;stroke-linejoin:bevel;paint-order:fill markers stroke"
       aria-label="output" />
  </g>
</svg>
