<?xml version="1.0" encoding="UTF-8" standalone="no"?>
<!-- Created with Inkscape (http://www.inkscape.org/) -->

<svg
   width="50.799999mm"
   height="128.5mm"
   viewBox="0 0 50.799999 128.5"
   version="1.1"
   id="svg1"
   inkscape:export-filename="Noise.svg"
   inkscape:export-xdpi="96"
   inkscape:export-ydpi="96"
   inkscape:version="1.4.2 (2aeb623e1d, 2025-05-12)"
   sodipodi:docname="Noise.svg"
   xmlns:inkscape="http://www.inkscape.org/namespaces/inkscape"
   xmlns:sodipodi="http://sodipodi.sourceforge.net/DTD/sodipodi-0.dtd"
   xmlns="http://www.w3.org/2000/svg"
   xmlns:svg="http://www.w3.org/2000/svg">
  <sodipodi:namedview
     id="namedview1"
     pagecolor="#ffffff"
     bordercolor="#000000"
     borderopacity="0.25"
     inkscape:showpageshadow="2"
     inkscape:pageopacity="0.0"
     inkscape:pagecheckerboard="0"
     inkscape:deskcolor="#d1d1d1"
     inkscape:document-units="mm"
     inkscape:zoom="1.87"
     inkscape:cx="84.491979"
     inkscape:cy="199.73262"
     inkscape:window-width="1850"
     inkscape:window-height="1016"
     inkscape:window-x="70"
     inkscape:window-y="27"
     inkscape:window-maximized="1"
     inkscape:current-layer="layer1" />
  <defs
     id="defs1" />
  <g
     inkscape:label="Layer 1"
     inkscape:groupmode="layer"
     id="layer1"
     inkscape:export-filename="Noise.svg"
     inkscape:export-xdpi="96"
     inkscape:export-ydpi="96">
    <rect
       style="fill:#f2f2f2;fill-opacity:0.992141;stroke:#000000;stroke-width:0;stroke-linecap:round;stroke-linejoin:bevel;stroke-dasharray:none;paint-order:markers fill stroke"
       id="rect7"
       width="50.788139"
       height="128.13235"
       x="0.29439929"
       y="0.38595065"
       ry="0"
       inkscape:label="rect7" />
    <path
       d="m 24.432497,115.56356 q 0.08957,0.0303 0.173633,0.12954 0.08544,0.0992 0.170877,0.27285 l 0.282499,0.56224 h -0.299035 l -0.263206,-0.52779 q -0.101976,-0.2067 -0.198439,-0.27423 -0.09508,-0.0675 -0.260449,-0.0675 h -0.30317 v 0.86954 h -0.278364 v -2.05741 h 0.628387 q 0.352779,0 0.526412,0.14745 0.173633,0.14745 0.173633,0.4451 0,0.19431 -0.09095,0.32247 -0.08957,0.12815 -0.261828,0.17776 z m -0.69729,-0.86403 v 0.73036 h 0.350023 q 0.201194,0 0.303169,-0.0923 0.103353,-0.0937 0.103353,-0.27423 0,-0.18052 -0.103353,-0.27147 -0.101975,-0.0923 -0.303169,-0.0923 z m 3.129533,0.99357 v 0.12402 h -1.165824 q 0.01654,0.26183 0.157097,0.39964 0.141938,0.13642 0.39412,0.13642 0.146072,0 0.282498,-0.0358 0.137805,-0.0358 0.272853,-0.10748 v 0.23977 q -0.136426,0.0579 -0.279743,0.0882 -0.143316,0.0303 -0.290767,0.0303 -0.369315,0 -0.585668,-0.21498 -0.214974,-0.21497 -0.214974,-0.58153 0,-0.37896 0.20395,-0.60083 0.205328,-0.22324 0.552595,-0.22324 0.311437,0 0.491961,0.20119 0.181902,0.19982 0.181902,0.54433 z m -0.25356,-0.0744 q -0.0028,-0.20809 -0.117134,-0.33211 -0.112999,-0.12403 -0.300413,-0.12403 -0.212218,0 -0.340376,0.11989 -0.12678,0.11989 -0.146073,0.33762 z m 1.949928,-0.39964 v -0.83509 h 0.25356 v 2.14423 h -0.25356 v -0.23151 q -0.07993,0.13781 -0.202572,0.20533 -0.121268,0.0662 -0.292145,0.0662 -0.279742,0 -0.456132,-0.22325 -0.175011,-0.22324 -0.175011,-0.58704 0,-0.36381 0.175011,-0.58705 0.17639,-0.22324 0.456132,-0.22324 0.170877,0 0.292145,0.0675 0.122646,0.0661 0.202572,0.20395 z m -0.864032,0.53882 q 0,0.27974 0.114377,0.43959 0.115756,0.15848 0.31695,0.15848 0.201194,0 0.31695,-0.15848 0.115755,-0.15985 0.115755,-0.43959 0,-0.27974 -0.115755,-0.43822 -0.115756,-0.15985 -0.31695,-0.15985 -0.201194,0 -0.31695,0.15985 -0.114377,0.15848 -0.114377,0.43822 z"
       id="text2"
       style="font-size:2.82223px;line-height:1.5;-inkscape-font-specification:sans-serif;text-align:center;letter-spacing:0.264583px;text-anchor:middle;fill:#1a1a1a;stroke:#000000;stroke-width:0.1;stroke-linecap:round;stroke-linejoin:bevel;paint-order:markers fill stroke"
       aria-label="Red" />
    <path
       d="M 22.002979,94.113089 H 22.2841 l 0.432705,1.73909 0.431327,-1.73909 h 0.312816 l 0.432705,1.73909 0.431327,-1.73909 h 0.282499 l -0.516766,2.057417 H 23.74069 l -0.434083,-1.785942 -0.438217,1.785942 h -0.350023 z m 4.510331,1.125861 v 0.931556 h -0.25356 v -0.923288 q 0,-0.219109 -0.08544,-0.327974 -0.08544,-0.108865 -0.256316,-0.108865 -0.205329,0 -0.32384,0.130914 -0.118512,0.130914 -0.118512,0.356913 v 0.8723 h -0.254938 v -2.144233 h 0.254938 v 0.840605 q 0.09095,-0.139182 0.213597,-0.208084 0.124024,-0.0689 0.285254,-0.0689 0.265963,0 0.402389,0.165365 0.136426,0.163987 0.136426,0.483693 z m 0.770325,-0.611851 h 0.253559 v 1.543407 h -0.253559 z m 0,-0.600826 h 0.253559 v 0.321084 h -0.253559 z m 1.299492,0.162609 v 0.438217 h 0.522278 v 0.19706 h -0.522278 v 0.83785 q 0,0.188792 0.05099,0.242535 0.05236,0.05374 0.21084,0.05374 h 0.26045 v 0.212218 h -0.26045 q -0.293523,0 -0.405144,-0.108865 -0.111622,-0.110243 -0.111622,-0.399632 v -0.83785 h -0.186035 v -0.19706 h 0.186035 v -0.438217 z m 2.440511,1.146531 v 0.124024 h -1.165823 q 0.01654,0.261828 0.157096,0.399632 0.141939,0.136426 0.39412,0.136426 0.146073,0 0.282499,-0.03583 0.137804,-0.03583 0.272852,-0.107487 v 0.239779 q -0.136426,0.05788 -0.279742,0.08819 -0.143317,0.03032 -0.290767,0.03032 -0.369315,0 -0.585668,-0.214974 -0.214974,-0.214975 -0.214974,-0.581534 0,-0.378961 0.20395,-0.600826 0.205328,-0.223243 0.552595,-0.223243 0.311437,0 0.491961,0.201194 0.181901,0.199816 0.181901,0.544327 z m -0.25356,-0.07441 q -0.0028,-0.208085 -0.117133,-0.332109 -0.113,-0.124023 -0.300413,-0.124023 -0.212219,0 -0.340377,0.119889 -0.12678,0.11989 -0.146072,0.337621 z"
       id="text3"
       style="font-size:2.82223px;line-height:1.5;-inkscape-font-specification:sans-serif;text-align:center;letter-spacing:0.264583px;text-anchor:middle;fill:#1a1a1a;stroke:#000000;stroke-width:0.1;stroke-linecap:round;stroke-linejoin:bevel;paint-order:markers fill stroke"
       aria-label="White" />
    <path
       d="m 22.223559,77.702116 -0.785484,-2.057417 h 0.290766 l 0.651814,1.732199 0.653192,-1.732199 h 0.289389 l -0.784106,2.057417 z m 2.754704,-0.835093 v 0.124023 H 23.81244 q 0.01654,0.261828 0.157097,0.399633 0.141938,0.136426 0.39412,0.136426 0.146072,0 0.282498,-0.03583 0.137805,-0.03583 0.272853,-0.107488 v 0.23978 q -0.136427,0.05788 -0.279743,0.08819 -0.143316,0.03032 -0.290767,0.03032 -0.369315,0 -0.585668,-0.214974 -0.214974,-0.214975 -0.214974,-0.581534 0,-0.378962 0.20395,-0.600826 0.205328,-0.223243 0.552595,-0.223243 0.311437,0 0.491961,0.201194 0.181901,0.199816 0.181901,0.544327 z m -0.253559,-0.07442 q -0.0028,-0.208084 -0.117134,-0.332108 -0.112999,-0.124024 -0.300413,-0.124024 -0.212219,0 -0.340376,0.11989 -0.12678,0.11989 -0.146073,0.33762 z m 0.934311,-1.234725 h 0.25356 v 2.144233 h -0.25356 z m 0.866787,0.600826 h 0.268718 l 0.482315,1.29536 0.482315,-1.29536 h 0.268718 l -0.578778,1.543407 h -0.34451 z m 3.436836,0.708314 v 0.124023 h -1.165823 q 0.01654,0.261828 0.157096,0.399633 0.141939,0.136426 0.39412,0.136426 0.146073,0 0.282499,-0.03583 0.137804,-0.03583 0.272852,-0.107488 v 0.23978 q -0.136426,0.05788 -0.279742,0.08819 -0.143317,0.03032 -0.290767,0.03032 -0.369315,0 -0.585668,-0.214974 -0.214974,-0.214975 -0.214974,-0.581534 0,-0.378962 0.20395,-0.600826 0.205328,-0.223243 0.552595,-0.223243 0.311437,0 0.491961,0.201194 0.181901,0.199816 0.181901,0.544327 z m -0.25356,-0.07442 q -0.0028,-0.208084 -0.117133,-0.332108 -0.113,-0.124024 -0.300413,-0.124024 -0.212219,0 -0.340377,0.11989 -0.12678,0.11989 -0.146072,0.33762 z m 1.185116,-1.072116 v 0.438217 h 0.522278 v 0.19706 h -0.522278 v 0.83785 q 0,0.188791 0.05099,0.242535 0.05237,0.05374 0.210841,0.05374 h 0.26045 v 0.212218 h -0.26045 q -0.293523,0 -0.405145,-0.108865 -0.111621,-0.110244 -0.111621,-0.399632 v -0.83785 h -0.186036 v -0.19706 h 0.186036 v -0.438217 z"
       id="text4"
       style="font-size:2.82223px;line-height:1.5;-inkscape-font-specification:sans-serif;text-align:center;letter-spacing:0.264583px;text-anchor:middle;fill:#1a1a1a;stroke:#000000;stroke-width:0.1;stroke-linecap:round;stroke-linejoin:bevel;paint-order:markers fill stroke"
       aria-label="Velvet" />
    <path
       d="m 22.649524,54.042616 v 0.773081 h 0.350023 q 0.194304,0 0.300413,-0.100597 0.106109,-0.100597 0.106109,-0.286633 0,-0.184657 -0.106109,-0.285254 -0.106109,-0.100597 -0.300413,-0.100597 z M 22.37116,53.813861 h 0.628387 q 0.345888,0 0.522278,0.157097 0.177767,0.155718 0.177767,0.457509 0,0.304548 -0.177767,0.460267 -0.17639,0.155718 -0.522278,0.155718 h -0.350023 v 0.826825 H 22.37116 Z m 3.175008,1.222323 v 0.124024 h -1.165824 q 0.01654,0.261828 0.157097,0.399632 0.141938,0.136426 0.39412,0.136426 0.146072,0 0.282498,-0.03583 0.137805,-0.03583 0.272853,-0.107487 v 0.239779 q -0.136426,0.05788 -0.279743,0.08819 -0.143316,0.03032 -0.290767,0.03032 -0.369315,0 -0.585668,-0.214975 -0.214974,-0.214974 -0.214974,-0.581534 0,-0.378961 0.20395,-0.600826 0.205328,-0.223243 0.552595,-0.223243 0.311437,0 0.491961,0.201194 0.181902,0.199817 0.181902,0.544327 z m -0.25356,-0.07441 q -0.0028,-0.208085 -0.117134,-0.332108 -0.112999,-0.124024 -0.300413,-0.124024 -0.212218,0 -0.340376,0.119889 -0.12678,0.11989 -0.146073,0.337621 z m 1.828661,-0.396876 q -0.04272,-0.02481 -0.09371,-0.03583 -0.04961,-0.0124 -0.110244,-0.0124 -0.214974,0 -0.33073,0.14056 -0.114377,0.139183 -0.114377,0.401011 v 0.813044 H 26.21727 v -1.543407 h 0.254938 v 0.23978 q 0.07993,-0.140561 0.208084,-0.208085 0.128158,-0.0689 0.311438,-0.0689 0.02618,0 0.05788,0.0041 0.03169,0.0028 0.07028,0.0096 z m 0.530545,-0.83785 h 0.25356 v 2.144233 h -0.25356 z m 1.048689,0.600826 h 0.253559 v 1.543407 h -0.253559 z m 0,-0.600826 h 0.253559 v 0.321084 h -0.253559 z m 2.331646,1.212677 v 0.931556 h -0.25356 v -0.923288 q 0,-0.219108 -0.08544,-0.327974 -0.08544,-0.108865 -0.256315,-0.108865 -0.205329,0 -0.32384,0.130914 -0.118512,0.130914 -0.118512,0.356913 v 0.8723 h -0.254937 v -1.543407 h 0.254938 v 0.23978 q 0.09095,-0.139183 0.213597,-0.208085 0.124023,-0.0689 0.285254,-0.0689 0.265962,0 0.402389,0.165365 0.136426,0.163987 0.136426,0.483693 z"
       id="text5"
       style="font-size:2.82223px;line-height:1.5;-inkscape-font-specification:sans-serif;text-align:center;letter-spacing:0.264583px;text-anchor:middle;fill:#1a1a1a;stroke:#000000;stroke-width:0.1;stroke-linecap:round;stroke-linejoin:bevel;paint-order:markers fill stroke"
       aria-label="Perlin" />
    <path
       d="M 9.4089201,35.81154 H 10.59128 v 0.234267 H 9.6872846 v 0.606338 h 0.8158004 v 0.234267 H 9.6872846 v 0.982544 H 9.4089201 Z m 2.5659129,0.751032 q -0.04272,-0.0248 -0.09371,-0.03583 -0.04961,-0.0124 -0.110243,-0.0124 -0.214975,0 -0.33073,0.14056 -0.114378,0.139183 -0.114378,0.401011 v 0.813044 H 11.070838 V 36.32555 h 0.254937 v 0.23978 q 0.07993,-0.140561 0.208085,-0.208085 0.128158,-0.0689 0.311437,-0.0689 0.02618,0 0.05788,0.0041 0.03169,0.0028 0.07028,0.0096 z m 1.788698,0.471291 v 0.124024 h -1.165824 q 0.01654,0.261828 0.157098,0.399632 0.141938,0.136426 0.39412,0.136426 0.146072,0 0.282498,-0.03583 0.137804,-0.03583 0.272853,-0.107487 v 0.239779 q -0.136427,0.05788 -0.279743,0.08819 -0.143316,0.03032 -0.290767,0.03032 -0.369315,0 -0.585669,-0.214975 -0.214974,-0.214975 -0.214974,-0.581534 0,-0.378961 0.20395,-0.600826 0.205329,-0.223243 0.552596,-0.223243 0.311437,0 0.491961,0.201194 0.181901,0.199816 0.181901,0.544327 z m -0.253559,-0.07441 q -0.0028,-0.208085 -0.117134,-0.332109 -0.112999,-0.124023 -0.300413,-0.124023 -0.212219,0 -0.340377,0.119889 -0.12678,0.11989 -0.146073,0.337621 z m 1.085896,0.139182 q 0,0.279742 0.114377,0.439595 0.115756,0.158475 0.31695,0.158475 0.201194,0 0.31695,-0.158475 0.115755,-0.159853 0.115755,-0.439595 0,-0.279743 -0.115755,-0.438218 -0.115756,-0.159852 -0.31695,-0.159852 -0.201194,0 -0.31695,0.159852 -0.114377,0.158475 -0.114377,0.438218 z m 0.864032,0.538814 q -0.07993,0.137804 -0.202572,0.205329 -0.121268,0.06615 -0.292145,0.06615 -0.279743,0 -0.456132,-0.223243 -0.175011,-0.223243 -0.175011,-0.587046 0,-0.363803 0.175011,-0.587046 0.176389,-0.223243 0.456132,-0.223243 0.170877,0 0.292145,0.06752 0.122646,0.06615 0.202572,0.20395 v -0.234267 h 0.25356 v 2.130453 H 15.4599 Z"
       id="text6"
       style="font-size:2.82223px;line-height:1.5;-inkscape-font-specification:sans-serif;text-align:center;letter-spacing:0.264583px;text-anchor:middle;fill:#1a1a1a;stroke:#000000;stroke-width:0.1;stroke-linecap:round;stroke-linejoin:bevel;paint-order:markers fill stroke"
       aria-label="Freq" />
    <path
       d="m 17.464336,3.5754889 h 0.749653 l 1.824522,3.4423394 V 3.5754889 h 0.540191 V 7.690311 H 19.829049 L 18.004527,4.2479715 V 7.690311 h -0.540191 z m 5.660981,1.3835503 q -0.4079,0 -0.644922,0.3197049 -0.237023,0.3169488 -0.237023,0.8709201 0,0.5539714 0.234267,0.8736763 0.237022,0.3169488 0.647678,0.3169488 0.405143,0 0.642166,-0.3197049 0.237022,-0.3197049 0.237022,-0.8709202 0,-0.5484592 -0.237022,-0.868164 -0.237023,-0.322461 -0.642166,-0.322461 z m 0,-0.4299479 q 0.661458,0 1.039041,0.4299479 0.377582,0.429948 0.377582,1.190625 0,0.7579211 -0.377582,1.1906251 -0.377583,0.4299479 -1.039041,0.4299479 -0.664215,0 -1.041797,-0.4299479 -0.374827,-0.432704 -0.374827,-1.1906251 0,-0.760677 0.374827,-1.190625 0.377582,-0.4299479 1.041797,-0.4299479 z m 2.521809,0.074414 h 0.507118 V 7.690311 h -0.507118 z m 0,-1.2016493 h 0.507118 v 0.6421658 h -0.507118 z m 3.800629,1.2925998 V 5.1740132 Q 29.232781,5.0637701 29.001271,5.0086486 28.76976,4.9535271 28.521713,4.9535271 q -0.377582,0 -0.567751,0.1157552 -0.187414,0.1157552 -0.187414,0.3472656 0,0.1763889 0.135048,0.2783637 0.135048,0.099219 0.542947,0.1901693 l 0.173633,0.038585 q 0.540191,0.1157552 0.766189,0.3279731 0.228755,0.2094618 0.228755,0.5870442 0,0.429948 -0.341754,0.6807509 -0.338997,0.250803 -0.93431,0.250803 -0.248047,0 -0.518142,-0.049609 -0.26734,-0.046853 -0.564996,-0.143316 V 7.0536573 q 0.28112,0.1460721 0.553972,0.2204861 0.272851,0.071658 0.540191,0.071658 0.358289,0 0.551215,-0.1212674 0.192925,-0.1240234 0.192925,-0.3472656 0,-0.2067057 -0.14056,-0.3169488 -0.137804,-0.110243 -0.609093,-0.2122179 L 28.166179,6.3067606 Q 27.69489,6.2075419 27.485429,6.0035922 27.275967,5.7968865 27.275967,5.4385965 q 0,-0.43546 0.30868,-0.6724826 0.308681,-0.2370226 0.876433,-0.2370226 0.281119,0 0.529166,0.041341 0.248047,0.041341 0.457509,0.1240235 z m 3.877799,1.3256728 v 0.2480468 h -2.33164 q 0.03307,0.5236545 0.314192,0.7992622 0.283876,0.2728516 0.788238,0.2728516 0.292144,0 0.564996,-0.071658 0.275607,-0.071658 0.545703,-0.214974 v 0.4795573 q -0.272852,0.1157552 -0.559484,0.1763889 -0.286632,0.060634 -0.581532,0.060634 -0.738628,0 -1.171332,-0.4299479 -0.429948,-0.429948 -0.429948,-1.1630643 0,-0.757921 0.407899,-1.2016493 0.410656,-0.4464844 1.105187,-0.4464844 0.622873,0 0.983919,0.4023872 0.363802,0.3996311 0.363802,1.0886499 z M 32.818436,5.8713005 Q 32.812924,5.455133 32.58417,5.2070861 32.358171,4.9590392 31.983345,4.9590392 q -0.424436,0 -0.680751,0.2397787 -0.253559,0.2397786 -0.292144,0.6752387 z"
       id="text7"
       style="font-size:5.64444px;line-height:1.5;-inkscape-font-specification:sans-serif;text-align:center;letter-spacing:0.264583px;text-anchor:middle;fill:#1a1a1a;stroke:#000000;stroke-width:0.1;stroke-linecap:round;stroke-linejoin:bevel;paint-order:markers fill stroke"
       aria-label="Noise" />
    <g
       inkscape:groupmode="layer"
       id="layer3"
       inkscape:label="g1">
      <g
         inkscape:groupmode="layer"
         id="layer2"
         inkscape:label="components">
        <circle
           style="fill:#ff0000;fill-opacity:0;stroke:#000000;stroke-width:0.3;stroke-linecap:round;stroke-linejoin:bevel;stroke-dasharray:none;paint-order:markers fill stroke"
           id="path1"
           cx="25.757967"
           cy="21.936365"
           inkscape:transform-center-x="9.8157532"
           inkscape:transform-center-y="3.9976888"
           inkscape:label="Ampl"
           class="Param"
           r="9.9942226" />
        <circle
           style="fill:#ff0000;fill-opacity:0;stroke:#000000;stroke-width:0.345693;stroke-linecap:round;stroke-linejoin:bevel;stroke-dasharray:none;paint-order:markers fill stroke"
           id="path1-1"
           cx="11.427234"
           cy="49.306465"
           inkscape:transform-center-x="7.1062801"
           inkscape:transform-center-y="2.8941943"
           inkscape:label="Freq"
           class="Param"
           r="7.2354865" />
        <circle
           style="fill:#0000ff;fill-opacity:0;stroke:#000000;stroke-width:0;stroke-linecap:round;stroke-linejoin:bevel;paint-order:markers fill stroke;stroke-dasharray:none"
           id="path2"
           cx="28.045834"
           cy="48.551041"
           r="1.9335423"
           inkscape:label="Perlin"
           class="Output" />
        <circle
           style="fill:#0000ff;fill-opacity:0;stroke:#000000;stroke-width:0;stroke-linecap:round;stroke-linejoin:bevel;paint-order:markers fill stroke;stroke-dasharray:none"
           id="path2-3"
           cx="28.045834"
           cy="86.121872"
           r="1.9335423"
           inkscape:label="White"
           class="Output" />
        <circle
           style="fill:#0000ff;fill-opacity:0;stroke:#000000;stroke-width:0;stroke-linecap:round;stroke-linejoin:bevel;paint-order:markers fill stroke;stroke-dasharray:none"
           id="path2-1"
           cx="28.045834"
           cy="68.659378"
           r="1.9335423"
           inkscape:label="Velvet"
           class="Output" />
        <circle
           style="fill:#0000ff;fill-opacity:0;stroke:#000000;stroke-width:0;stroke-linecap:round;stroke-linejoin:bevel;paint-order:markers fill stroke;stroke-dasharray:none"
           id="path2-36"
           cx="28.045834"
           cy="108.34688"
           r="1.9335423"
           inkscape:label="red"
           class="Output" />
      </g>
    </g>
    <circle
       style="fill:#f2f2f2;fill-opacity:1;stroke:#000000;stroke-width:0;stroke-linecap:round;stroke-linejoin:bevel;stroke-dasharray:none;stroke-opacity:0;paint-order:markers fill stroke"
       id="path7"
       cx="11.885026"
       cy="58.451691"
       r="6.3499999" />
    <circle
       style="fill:#f2f2f2;fill-opacity:1;stroke:#000000;stroke-width:0;stroke-linecap:round;stroke-linejoin:bevel;stroke-dasharray:none;stroke-opacity:0;paint-order:markers fill stroke"
       id="path7-0"
       cx="25.525925"
       cy="28.360239"
       r="7.5" />
  </g>
</svg>
