<?xml version="1.0" encoding="UTF-8" standalone="no"?>
<!-- Created with Inkscape (http://www.inkscape.org/) -->

<svg
   width="81.194885mm"
   height="128.09193mm"
   viewBox="0 0 81.194884 128.09193"
   version="1.1"
   id="svg1"
   inkscape:version="1.4.2 (1:1.4.2+202505120737+ebf0e940d0)"
   sodipodi:docname="RSModule.svg"
   inkscape:export-filename="RSModule.svg"
   inkscape:export-xdpi="96"
   inkscape:export-ydpi="96"
   xmlns:inkscape="http://www.inkscape.org/namespaces/inkscape"
   xmlns:sodipodi="http://sodipodi.sourceforge.net/DTD/sodipodi-0.dtd"
   xmlns="http://www.w3.org/2000/svg"
   xmlns:svg="http://www.w3.org/2000/svg">
  <sodipodi:namedview
     id="namedview1"
     pagecolor="#ffffff"
     bordercolor="#cccccc"
     borderopacity="1"
     inkscape:showpageshadow="0"
     inkscape:pageopacity="1"
     inkscape:pagecheckerboard="0"
     inkscape:deskcolor="#d1d1d1"
     inkscape:document-units="mm"
     inkscape:zoom="1.89"
     inkscape:cx="185.18519"
     inkscape:cy="255.82011"
     inkscape:window-width="1854"
     inkscape:window-height="1011"
     inkscape:window-x="66"
     inkscape:window-y="32"
     inkscape:window-maximized="1"
     inkscape:current-layer="layer2">
    <inkscape:page
       x="0"
       y="7.8825516e-16"
       width="81.194885"
       height="128.09193"
       id="page2"
       margin="0"
       bleed="0" />
  </sodipodi:namedview>
  <defs
     id="defs1" />
  <g
     inkscape:label="Layer 1"
     inkscape:groupmode="layer"
     id="layer1"
     transform="matrix(0.4135815,0,0,0.59915979,-25.96806,-23.244222)">
    <g
       inkscape:groupmode="layer"
       id="layer2"
       inkscape:label="g1"
       inkscape:export-filename="RSPluginV2/res/rsV2.svg"
       inkscape:export-xdpi="96"
       inkscape:export-ydpi="96">
      <rect
         style="fill:#4d4d4d;stroke-width:2.55535"
         id="rect7"
         width="196.32137"
         height="213.78593"
         x="62.788254"
         y="38.794697"
         ry="0" />
      <ellipse
         style="fill:#ff0000;fill-opacity:0.02430853;stroke-width:0.479423"
         id="path4-4-3"
         cx="144.80353"
         cy="178.62344"
         rx="9.4781799"
         ry="6.3084369"
         inkscape:label="threshold"
         class="params" />
      <ellipse
         style="fill:#ff0000;fill-opacity:0.02123738;stroke-width:0.479423"
         id="path4-4-6"
         cx="176.23627"
         cy="178.62344"
         rx="9.4781799"
         ry="6.3084369"
         inkscape:label="threshold"
         class="params" />
      <ellipse
         style="fill:#ff0000;fill-opacity:0.01901616;stroke-width:0.479423"
         id="path4-4-2"
         cx="210.08691"
         cy="178.62344"
         rx="9.4781799"
         ry="6.3084369"
         inkscape:label="threshold"
         class="params" />
      <rect
         style="fill:#1a1a1a;stroke-width:0.379512"
         id="rect2"
         width="195.85016"
         height="68.429161"
         x="63.030045"
         y="55.484734"
         ry="4.311029" />
      <path
         d="m 75.564309,244.61 h -0.941632 l -1.525247,-3.93266 h -0.01961 q 0.0098,0.37145 0.01961,0.74283 0.01472,0.37142 0.02452,0.74285 V 244.61 h -0.662084 v -5.19984 h 0.936727 l 1.520342,3.89623 h 0.01472 q -0.0048,-0.36413 -0.01472,-0.72097 -0.0098,-0.35685 -0.01962,-0.71371 v -2.46155 h 0.666992 z m 3.905275,-1.99545 q 0,0.99044 -0.353112,1.52935 -0.348208,0.53894 -0.95144,0.53894 -0.372728,0 -0.666989,-0.24034 -0.289357,-0.24035 -0.456104,-0.69914 -0.166746,-0.46609 -0.166746,-1.12881 0,-0.99044 0.348206,-1.52208 0.348209,-0.53164 0.956346,-0.53164 0.377633,0 0.666989,0.24032 0.289356,0.24032 0.456102,0.69915 0.166748,0.45152 0.166748,1.11425 z m -1.848933,0 q 0,0.58989 0.127516,0.89576 0.132418,0.29859 0.426677,0.29859 0.289356,0 0.416868,-0.29859 0.132417,-0.30587 0.132417,-0.89576 0,-0.58989 -0.132417,-0.88121 -0.127515,-0.29859 -0.421772,-0.29859 -0.289355,0 -0.421773,0.29859 -0.127516,0.29132 -0.127516,0.88121 z m 3.468789,-3.53939 q 0.161841,0 0.279546,0.1165 0.117697,0.10903 0.117697,0.41512 0,0.29859 -0.117697,0.4151 -0.117696,0.11651 -0.279546,0.11651 -0.166748,0 -0.284453,-0.11651 -0.112792,-0.11651 -0.112792,-0.4151 0,-0.30587 0.112792,-0.41512 0.117697,-0.1165 0.284453,-0.1165 z m 0.36292,1.55851 V 244.61 h -0.730746 v -3.97633 z m 3.282428,2.79654 q 0,0.60445 -0.289355,0.93218 -0.284453,0.32045 -0.853354,0.32045 -0.279546,0 -0.480626,-0.0582 -0.201077,-0.0511 -0.402154,-0.17476 v -0.89579 q 0.215791,0.14576 0.465912,0.24035 0.250122,0.0947 0.44139,0.0947 0.215791,0 0.304069,-0.0947 0.09318,-0.0948 0.09318,-0.24763 0,-0.10182 -0.03924,-0.18217 -0.03434,-0.0804 -0.15694,-0.18217 -0.1226,-0.10183 -0.382537,-0.26219 -0.250121,-0.16013 -0.411964,-0.31314 -0.161842,-0.16013 -0.240312,-0.3787 -0.07847,-0.22576 -0.07847,-0.56076 0,-0.55348 0.289356,-0.83023 0.289354,-0.27673 0.76998,-0.27673 0.25012,0 0.475719,0.0729 0.225601,0.0729 0.465912,0.24032 l -0.220696,0.77925 q -0.196173,-0.12392 -0.372728,-0.204 -0.176556,-0.0874 -0.358017,-0.0874 -0.323685,0 -0.323685,0.26219 0,0.0946 0.03924,0.17475 0.04414,0.0729 0.161843,0.16036 0.1226,0.0874 0.358015,0.23303 0.230503,0.13832 0.397251,0.29133 0.166747,0.14551 0.255025,0.3714 0.09318,0.21848 0.09318,0.57535 z m 2.321177,-2.86938 q 0.554189,0 0.877875,0.47337 0.323687,0.4661 0.323687,1.33274 v 0.52434 h -1.726324 q 0.0098,0.45882 0.181459,0.721 0.176556,0.26216 0.485529,0.26216 0.25993,0 0.470815,-0.0729 0.210887,-0.0804 0.436487,-0.24032 v 0.83751 q -0.196174,0.14574 -0.416869,0.2112 -0.21579,0.0729 -0.524763,0.0729 -0.402156,0 -0.711129,-0.21851 -0.308973,-0.22577 -0.485529,-0.67727 -0.176554,-0.45151 -0.176554,-1.1361 0,-0.69914 0.156937,-1.15796 0.161844,-0.46608 0.446294,-0.69911 0.284453,-0.23305 0.662085,-0.23305 z m 0.0048,0.77197 q -0.210884,0 -0.35311,0.20399 -0.137323,0.20399 -0.161844,0.63358 h 1.025005 q -0.0048,-0.36414 -0.127516,-0.59716 -0.1226,-0.24035 -0.382537,-0.24035 z m 5.379433,-2.25764 q 0.161844,0 0.279548,0.1165 0.117696,0.10903 0.117696,0.41512 0,0.29859 -0.117696,0.4151 -0.117696,0.11651 -0.279548,0.11651 -0.166744,0 -0.284451,-0.11651 -0.112792,-0.11651 -0.112792,-0.4151 0,-0.30587 0.112792,-0.41512 0.117698,-0.1165 0.284451,-0.1165 z m 0.362922,1.55851 V 244.61 h -0.730745 v -3.97633 z m 2.934222,-0.0729 q 0.43158,0 0.69151,0.34956 0.25993,0.3423 0.25993,1.10696 v 2.59265 h -0.7307 v -2.3232 q 0,-0.4297 -0.103,-0.64089 -0.10299,-0.21848 -0.32859,-0.21848 -0.33349,0 -0.4561,0.34229 -0.12262,0.33501 -0.12262,0.96858 v 1.87167 h -0.73071 v -3.97634 h 0.55909 l 0.0981,0.50977 h 0.0392 q 0.12752,-0.30587 0.34821,-0.44424 0.2256,-0.13832 0.47572,-0.13832 z"
         id="text1"
         style="font-weight:bold;font-size:3.72223px;line-height:4.25397px;font-family:Sans;-inkscape-font-specification:'Sans, Bold';letter-spacing:0.492419px;word-spacing:0.492419px;fill:#ececec;stroke-width:0.790619"
         aria-label="Noise in" />
      <path
         d="m 149.63257,244.25637 h -2.21771 v -0.62407 l 0.59366,-0.29027 v -3.35254 l -0.59366,-0.29026 v -0.62407 h 2.21771 v 0.62407 l -0.59367,0.29026 v 3.35254 l 0.59367,0.29027 z m 3.76868,-4.03468 q 0.60049,0 0.96214,0.34832 0.36166,0.34105 0.36166,1.10299 v 2.58337 h -1.01673 v -2.31485 q 0,-0.42815 -0.1433,-0.63859 -0.14329,-0.2177 -0.45719,-0.2177 -0.46401,0 -0.6346,0.34106 -0.1706,0.33382 -0.1706,0.96513 v 1.86495 h -1.01673 v -3.96209 h 0.7779 l 0.13647,0.50795 h 0.0546 q 0.17741,-0.30478 0.48448,-0.44265 0.31389,-0.13788 0.6619,-0.13788 z m 5.34496,0 q 0.62778,0 1.01673,0.5225 0.38896,0.5152 0.38896,1.52388 0,1.00867 -0.4026,1.53838 -0.4026,0.52249 -1.03038,0.52249 -0.4026,0 -0.64143,-0.1524 -0.23883,-0.15956 -0.38896,-0.35555 h -0.0546 q 0.0546,0.30477 0.0546,0.5805 v 1.59648 h -1.01673 v -5.70369 h 0.82567 l 0.14329,0.51522 h 0.0478 q 0.15013,-0.23949 0.4026,-0.41363 0.25248,-0.17413 0.65508,-0.17413 z m -0.32754,0.86354 q -0.39577,0 -0.55954,0.26125 -0.15696,0.26123 -0.1706,0.7982 v 0.11605 q 0,0.57328 0.15695,0.88529 0.16376,0.3048 0.58684,0.3048 0.34801,0 0.51178,-0.3048 0.17059,-0.31201 0.17059,-0.89254 0,-1.16832 -0.69602,-1.16832 z m 6.89394,-0.79095 v 3.96209 h -0.7779 l -0.13647,-0.50797 h -0.0546 q -0.17741,0.30477 -0.4913,0.44266 -0.30707,0.13788 -0.65508,0.13788 -0.60049,0 -0.96215,-0.34106 -0.36165,-0.34832 -0.36165,-1.11027 v -2.58334 h 1.01673 v 2.31486 q 0,0.42087 0.1433,0.63859 0.14329,0.2177 0.45719,0.2177 0.46401,0 0.6346,-0.33383 0.1706,-0.34105 0.1706,-0.97237 v -1.86495 z m 3.53668,3.17112 q 0.17059,0 0.32754,-0.0363 0.15695,-0.0363 0.31389,-0.0869 v 0.80548 q -0.16376,0.0725 -0.40942,0.12323 -0.23883,0.0583 -0.52543,0.0583 -0.33436,0 -0.60049,-0.11605 -0.2593,-0.11605 -0.41625,-0.3991 -0.15012,-0.29028 -0.15012,-0.79825 v -1.90848 h -0.48448 v -0.45716 l 0.55954,-0.36282 0.29342,-0.83451 h 0.64826 v 0.84176 h 1.04403 v 0.81273 h -1.04403 v 1.90848 q 0,0.22496 0.12283,0.34107 0.12284,0.10888 0.32072,0.10888 z"
         id="text3"
         style="font-weight:bold;font-size:4.01771px;line-height:4.59167px;font-family:Sans;-inkscape-font-specification:'Sans, Bold';letter-spacing:0.531509px;word-spacing:0.531509px;fill:#ececec;stroke-width:0.930913"
         aria-label="Input" />
      <path
         d="m 224.28593,242.43281 q 0,1.0155 -0.23583,1.77487 -0.22943,0.75023 -0.70744,1.17106 -0.47802,0.42085 -1.22372,0.42085 -0.73931,0 -1.2237,-0.42085 -0.47801,-0.42083 -0.71383,-1.1802 -0.22945,-0.75935 -0.22945,-1.77488 0,-1.01556 0.22945,-1.76576 0.23582,-0.75019 0.71383,-1.16189 0.48439,-0.42085 1.23007,-0.42085 0.73933,0 1.21735,0.42085 0.47801,0.4117 0.70744,1.17106 0.23583,0.75018 0.23583,1.76574 z m -3.32059,0 q 0,1.02466 0.27406,1.61933 0.27406,0.58555 0.87954,0.58555 0.61824,0 0.88591,-0.58555 0.26769,-0.59467 0.26769,-1.61933 0,-1.03384 -0.26769,-1.61936 -0.26767,-0.58556 -0.87954,-0.58556 -0.61185,0 -0.88591,0.58556 -0.27406,0.58552 -0.27406,1.61936 z m 8.22364,-1.72004 v 4.99533 h -0.72657 l -0.12746,-0.64043 h -0.051 q -0.16575,0.38428 -0.4589,0.5581 -0.28681,0.17376 -0.61184,0.17376 -0.56087,0 -0.89865,-0.42998 -0.3378,-0.43916 -0.3378,-1.39979 v -3.25704 h 0.94965 v 2.91851 q 0,0.53066 0.13376,0.80512 0.13377,0.27447 0.42705,0.27447 0.43338,0 0.59272,-0.42085 0.1594,-0.43001 0.1594,-1.22597 v -2.35128 z m 3.30332,3.99811 q 0.15939,0 0.30594,-0.0456 0.1465,-0.0454 0.29317,-0.10961 v 1.01553 q -0.15304,0.0916 -0.3824,0.15568 -0.22309,0.0732 -0.49076,0.0732 -0.31232,0 -0.56086,-0.14635 -0.24221,-0.14635 -0.38879,-0.50319 -0.14021,-0.36592 -0.14021,-1.00637 v -2.4061 h -0.45251 v -0.5764 l 0.52262,-0.45744 0.27406,-1.05213 h 0.60547 v 1.06125 h 0.97514 v 1.02472 h -0.97514 v 2.40615 q 0,0.28361 0.11474,0.42999 0.11474,0.13736 0.29955,0.13736 z m 4.08088,-4.08956 q 0.58636,0 0.94966,0.65869 0.36328,0.64958 0.36328,1.92127 0,1.27172 -0.37605,1.93958 -0.376,0.65873 -0.96237,0.65873 -0.37604,0 -0.59911,-0.19213 -0.22308,-0.20119 -0.36328,-0.44829 h -0.051 q 0.051,0.38423 0.051,0.7319 v 2.01276 h -0.94967 v -7.19106 h 0.7712 l 0.13377,0.64958 h 0.0447 q 0.14022,-0.30189 0.37603,-0.52146 0.23584,-0.21982 0.61186,-0.21982 z m -0.30592,1.08873 q -0.36966,0 -0.52263,0.32934 -0.14651,0.32937 -0.15938,1.00638 v 0.14635 q 0,0.72276 0.1465,1.11616 0.15303,0.38428 0.54812,0.38428 0.32505,0 0.47802,-0.38428 0.15939,-0.3934 0.15939,-1.12529 0,-1.47298 -0.65008,-1.47298 z m 6.43906,-0.99728 v 4.99533 h -0.72656 l -0.12746,-0.64043 h -0.051 q -0.16575,0.38428 -0.45889,0.5581 -0.28681,0.17376 -0.61186,0.17376 -0.56086,0 -0.89866,-0.42998 -0.33778,-0.43916 -0.33778,-1.39979 v -3.25704 h 0.94964 v 2.91851 q 0,0.53066 0.13376,0.80512 0.13377,0.27447 0.42703,0.27447 0.43339,0 0.59273,-0.42085 0.15941,-0.43001 0.15941,-1.22597 v -2.35128 z m 3.30332,3.99811 q 0.15939,0 0.30593,-0.0456 0.14651,-0.0454 0.29318,-0.10961 v 1.01553 q -0.15305,0.0916 -0.38241,0.15568 -0.22307,0.0732 -0.49077,0.0732 -0.31228,0 -0.56085,-0.14635 -0.24219,-0.14635 -0.38878,-0.50319 -0.1402,-0.36592 -0.1402,-1.00637 v -2.4061 h -0.45253 v -0.5764 l 0.52264,-0.45744 0.27406,-1.05213 h 0.60548 v 1.06125 h 0.97514 v 1.02472 h -0.97514 v 2.40615 q 0,0.28361 0.11474,0.42999 0.11474,0.13736 0.29956,0.13736 z"
         id="text4"
         style="font-weight:bold;font-size:3.81066px;line-height:4.35504px;font-family:Sans;-inkscape-font-specification:'Sans, Bold';letter-spacing:0.504118px;word-spacing:0.504118px;fill:#ececec;stroke-width:1.01019"
         aria-label="Output&#10;" />
      <rect
         style="fill:#999999;stroke-width:0.224611"
         id="rect1"
         width="195.30589"
         height="0.25035056"
         x="63.126736"
         y="89.69931"
         ry="0.12517528" />
      <rect
         style="fill:#999999;stroke-width:0.209101"
         id="rect1-3"
         width="195.30589"
         height="0.2169705"
         x="63.197823"
         y="106.8066"
         ry="0.10848525" />
      <rect
         style="fill:#999999;stroke-width:0.209101"
         id="rect1-3-3"
         width="195.30589"
         height="0.2169705"
         x="63.011654"
         y="72.592026"
         ry="0.10848525" />
      <rect
         style="fill:#999999;stroke-width:0.159397"
         id="rect1-3-6"
         width="69.393394"
         height="0.35485372"
         x="87.223885"
         y="162.91359"
         ry="0.17742684"
         transform="matrix(2.0969514e-4,0.99999998,0.98110901,-0.19345572,0,0)" />
      <rect
         style="fill:#999999;stroke-width:0.143324"
         id="rect1-3-6-2"
         width="69.393394"
         height="0.28689894"
         x="107.01057"
         y="216.24905"
         ry="0.14344946"
         transform="matrix(1.6778305e-4,0.99999999,0.97095121,-0.23927757,0,0)" />
      <rect
         style="fill:#999999;stroke-width:0.143324"
         id="rect1-3-6-5"
         width="69.393394"
         height="0.28689894"
         x="81.785896"
         y="109.00298"
         ry="0.14344946"
         transform="matrix(1.6778305e-4,0.99999999,0.97095121,-0.23927757,0,0)" />
      <rect
         style="fill:#999999;stroke-width:0.153538"
         id="rect1-3-6-5-1"
         width="78.971741"
         height="0.28931254"
         x="194.50845"
         y="128.79649"
         ry="0.14465626"
         transform="matrix(1.4743294e-4,0.99999999,0.962851,-0.27003324,0,0)" />
      <path
         d="M 71.923044,196.46011 H 71.120961 V 190.349 H 70.09047 v -1.30951 h 2.863064 v 1.30951 h -1.03049 z m 2.744058,-6.28777 q 0,0.41571 -0.01593,0.80026 -0.01062,0.38454 -0.02125,0.54042 h 0.0425 q 0.138107,-0.43649 0.355891,-0.63396 0.217783,-0.19748 0.483374,-0.19748 0.472751,0 0.754277,0.49889 0.286837,0.48846 0.286837,1.57972 v 3.69992 h -0.791459 v -3.31537 q 0,-1.22638 -0.467439,-1.22638 -0.355891,0 -0.493998,0.48846 -0.132795,0.4781 -0.132795,1.38229 v 2.671 h -0.79146 v -7.89871 h 0.79146 z m 4.720044,0.50924 q 0.05843,0 0.138106,0.009 0.07968,0.009 0.127484,0.0311 l -0.05843,1.45502 q -0.03719,-0.0208 -0.111548,-0.0311 -0.06905,-0.0208 -0.122171,-0.0208 -0.201849,0 -0.387762,0.14556 -0.185912,0.13505 -0.302774,0.4469 -0.111547,0.31179 -0.111547,0.85224 v 2.88925 h -0.791459 v -5.67459 h 0.600234 l 0.116859,0.95615 h 0.03719 q 0.127482,-0.4365 0.350578,-0.74829 0.223096,-0.31179 0.515246,-0.31179 z m 2.281927,0 q 0.600234,0 0.950813,0.67556 0.35058,0.66515 0.35058,1.90192 v 0.74831 h -1.869757 q 0.01062,0.65475 0.196537,1.02891 0.191225,0.37415 0.52587,0.37415 0.281525,0 0.509932,-0.10394 0.228408,-0.11442 0.472751,-0.34297 v 1.19521 q -0.212472,0.20784 -0.451503,0.30138 -0.233719,0.10394 -0.568363,0.10394 -0.435569,0 -0.770212,-0.31179 -0.334644,-0.32216 -0.52587,-0.96654 -0.191224,-0.64438 -0.191224,-1.62133 0,-0.99771 0.169977,-1.65247 0.17529,-0.66516 0.483374,-0.99774 0.308086,-0.33258 0.717095,-0.33258 z m 0.0053,1.10167 q -0.228406,0 -0.382449,0.29099 -0.148731,0.29102 -0.17529,0.9042 h 1.110169 q -0.0053,-0.51963 -0.138108,-0.85221 -0.132795,-0.34298 -0.414322,-0.34298 z m 4.364154,2.99319 q 0,0.86263 -0.313396,1.33032 -0.308086,0.45728 -0.924254,0.45728 -0.302774,0 -0.520558,-0.0831 -0.217784,-0.0728 -0.435568,-0.24943 v -1.27834 q 0.23372,0.20786 0.504622,0.34296 0.270901,0.13505 0.478062,0.13505 0.23372,0 0.329332,-0.13505 0.100924,-0.13504 0.100924,-0.35336 0,-0.14556 -0.04249,-0.25982 -0.03719,-0.11423 -0.169978,-0.25983 -0.132795,-0.14556 -0.414321,-0.37415 -0.270902,-0.22865 -0.446192,-0.4469 -0.175289,-0.22865 -0.260277,-0.54044 -0.08498,-0.32219 -0.08498,-0.80026 0,-0.78988 0.313397,-1.1848 0.313397,-0.39495 0.833953,-0.39495 0.270902,0 0.515245,0.10394 0.244343,0.10393 0.504622,0.34297 l -0.239032,1.11205 q -0.212472,-0.17668 -0.403696,-0.291 -0.191225,-0.12474 -0.387762,-0.12474 -0.35058,0 -0.35058,0.37416 0,0.13505 0.04249,0.24943 0.04781,0.10394 0.175289,0.22865 0.132796,0.12473 0.387762,0.33258 0.249655,0.19744 0.430257,0.4157 0.180601,0.20787 0.276214,0.53006 0.100924,0.31179 0.100924,0.82104 z m 1.809174,-4.6041 q 0,0.41571 -0.01592,0.80026 -0.01062,0.38454 -0.02125,0.54042 h 0.04249 q 0.138108,-0.43649 0.35589,-0.63396 0.217785,-0.19748 0.483375,-0.19748 0.472751,0 0.754277,0.49889 0.286842,0.48846 0.286842,1.57972 v 3.69992 h -0.791463 v -3.31537 q 0,-1.22638 -0.46744,-1.22638 -0.355891,0 -0.493998,0.48846 -0.132795,0.4781 -0.132795,1.38229 v 2.671 h -0.791497 v -7.89871 h 0.791459 z m 5.734602,3.44009 q 0,1.41346 -0.382454,2.18252 -0.377133,0.76909 -1.030492,0.76909 -0.403697,0 -0.722401,-0.34296 -0.313402,-0.34297 -0.494002,-0.99774 -0.180601,-0.66515 -0.180601,-1.61091 0,-1.41345 0.377144,-2.17214 0.377132,-0.75871 1.035802,-0.75871 0.409009,0 0.722401,0.34298 0.313403,0.34297 0.494002,0.99773 0.180601,0.64438 0.180601,1.59014 z m -2.002554,0 q 0,0.84182 0.138112,1.27833 0.143414,0.42612 0.462127,0.42612 0.313393,0 0.451496,-0.42612 0.143425,-0.43651 0.143425,-1.27833 0,-0.84183 -0.143425,-1.25756 -0.138103,-0.42612 -0.456817,-0.42612 -0.313392,0 -0.456806,0.42612 -0.138112,0.41573 -0.138112,1.25756 z m 3.848905,2.84768 h -0.791452 v -7.89871 h 0.791452 z m 2.14914,0.10394 q -0.483382,0 -0.791461,-0.73789 -0.302771,-0.74831 -0.302771,-2.19295 0,-1.45503 0.308083,-2.20332 0.308083,-0.74829 0.807392,-0.74829 0.313397,0 0.515247,0.23903 0.20185,0.23904 0.3187,0.59239 h 0.0265 q -0.0159,-0.16637 -0.0372,-0.47807 -0.0213,-0.32218 -0.0213,-0.65476 v -1.81878 h 0.79146 v 7.8987 h -0.60554 l -0.15405,-0.73789 h -0.0318 q -0.11686,0.35337 -0.31341,0.60279 -0.19653,0.23904 -0.50992,0.23904 z m 0.27621,-1.23677 q 0.32933,0 0.46213,-0.37415 0.1328,-0.38453 0.13811,-1.14323 v -0.16638 q 0,-0.83143 -0.1328,-1.26794 -0.12748,-0.43651 -0.47806,-0.43651 -0.260274,0 -0.409014,0.4469 -0.148722,0.43651 -0.148722,1.26795 0,0.83146 0.148722,1.25757 0.14874,0.41571 0.419634,0.41571 z"
         id="text5"
         style="font-weight:bold;font-size:5.44092px;line-height:4.66365px;font-family:Sans;-inkscape-font-specification:'Sans, Bold';letter-spacing:0.411308px;word-spacing:0.411308px;fill:#ffffff;fill-opacity:0.739094;stroke-width:0.561677"
         aria-label="Threshold" />
      <rect
         style="fill:#ffffff;fill-opacity:0.739094;stroke-width:0.531509"
         id="rect5"
         width="195.64439"
         height="0.46729165"
         x="63.12674"
         y="153.0475"
         ry="0.23364583" />
      <path
         d="m 96.85241,52.964805 q 2.053052,0 3.02333,0.745286 0.98434,0.745286 0.98434,2.263982 0,0.689038 -0.26718,1.209332 -0.25311,0.506232 -0.689036,0.871844 -0.42186,0.35155 -0.91403,0.576542 l 2.953016,4.373283 h -2.362412 l -2.39054,-3.852989 h -1.139022 v 3.852989 H 93.927514 V 52.964805 Z m -0.154682,1.743688 h -0.646852 v 2.713966 h 0.689038 q 1.05465,0 1.504634,-0.35155 0.464046,-0.35155 0.464046,-1.040588 0,-0.717162 -0.49217,-1.012464 -0.478108,-0.309364 -1.518696,-0.309364 z m 12.962312,5.512304 q 0,1.335891 -0.97027,2.137425 -0.95622,0.787472 -2.72803,0.787472 -1.58901,0 -2.84053,-0.604666 v -1.982743 q 0.71717,0.309365 1.47651,0.576543 0.77341,0.253116 1.53276,0.253116 0.78747,0 1.1109,-0.295302 0.33749,-0.309364 0.33749,-0.773411 0,-0.379674 -0.26718,-0.646852 -0.25312,-0.267178 -0.68904,-0.49217 -0.43592,-0.239054 -0.9984,-0.506232 -0.35155,-0.168744 -0.75935,-0.393736 -0.4078,-0.239054 -0.78747,-0.576542 -0.36561,-0.35155 -0.60467,-0.84372 -0.23905,-0.49217 -0.23905,-1.181208 0,-1.349952 0.91403,-2.095238 0.91403,-0.759348 2.48897,-0.759348 0.78748,0 1.49058,0.182806 0.71716,0.182806 1.49057,0.520294 l -0.68904,1.659316 q -0.68904,-0.28124 -1.23746,-0.435922 -0.54841,-0.154682 -1.12496,-0.154682 -0.60466,0 -0.92809,0.28124 -0.32342,0.28124 -0.32342,0.731224 0,0.534356 0.4781,0.84372 0.47811,0.309364 1.42027,0.759348 0.77341,0.365612 1.30776,0.759348 0.54842,0.393736 0.84372,0.928092 0.2953,0.534356 0.2953,1.321828 z m 11.32545,2.784277 -2.41867,-7.874721 h -0.0563 q 0.0141,0.28124 0.0422,0.84372 0.0281,0.56248 0.0562,1.209332 0.0281,0.63279 0.0281,1.153084 v 4.668585 h -1.89837 V 52.964805 h 2.89677 l 2.37648,7.677853 h 0.0422 l 2.5171,-7.677853 h 2.89677 v 10.040269 h -1.98274 v -4.752957 q 0,-0.478108 0.0141,-1.096836 0.0281,-0.618728 0.0422,-1.167146 0.0281,-0.56248 0.0422,-0.84372 h -0.0562 l -2.58741,7.860659 z m 16.35127,-3.852989 q 0,1.912433 -1.01247,2.953021 -0.9984,1.040588 -2.72803,1.040588 -1.06871,0 -1.91243,-0.464046 -0.82966,-0.464046 -1.30776,-1.349952 -0.47811,-0.899969 -0.47811,-2.179611 0,-1.912432 0.9984,-2.938958 0.9984,-1.026526 2.74209,-1.026526 1.08277,0 1.91243,0.464046 0.82966,0.464046 1.30777,1.349952 0.47811,0.871844 0.47811,2.151486 z m -5.30138,0 q 0,1.139022 0.36561,1.729627 0.37968,0.576542 1.2234,0.576542 0.82966,0 1.19527,-0.576542 0.37967,-0.590605 0.37967,-1.729627 0,-1.139022 -0.37967,-1.701502 -0.36561,-0.576542 -1.20933,-0.576542 -0.82966,0 -1.20934,0.576542 -0.36561,0.56248 -0.36561,1.701502 z m 9.99523,3.993609 q -1.27964,0 -2.09524,-0.998402 -0.80153,-1.012464 -0.80153,-2.967083 0,-1.96868 0.8156,-2.981144 0.81559,-1.012464 2.13742,-1.012464 0.82966,0 1.36401,0.323426 0.53436,0.323426 0.84372,0.801534 h 0.0703 q -0.0422,-0.224992 -0.0984,-0.646852 -0.0563,-0.435922 -0.0563,-0.885906 v -2.46085 h 2.09524 v 10.687121 h -1.60307 l -0.4078,-0.998402 h -0.0844 q -0.30936,0.478108 -0.82966,0.815596 -0.52029,0.323426 -1.34995,0.323426 z m 0.73123,-1.673378 q 0.87184,0 1.22339,-0.506232 0.35155,-0.520295 0.36561,-1.546821 v -0.224992 q 0,-1.12496 -0.35155,-1.715564 -0.33749,-0.590604 -1.26558,-0.590604 -0.68904,0 -1.08277,0.604666 -0.39374,0.590604 -0.39374,1.715564 0,1.12496 0.39374,1.701503 0.39373,0.56248 1.1109,0.56248 z m 13.31385,-6.145095 v 7.677853 h -1.60306 l -0.28124,-0.98434 h -0.1125 q -0.36561,0.590604 -1.01246,0.857782 -0.63279,0.267178 -1.34996,0.267178 -1.23745,0 -1.98274,-0.660914 -0.74528,-0.674976 -0.74528,-2.151487 v -5.006072 h 2.09523 v 4.485778 q 0,0.815597 0.29531,1.237457 0.2953,0.42186 0.94215,0.42186 0.95622,0 1.30777,-0.646852 0.35155,-0.660915 0.35155,-1.884309 v -3.613934 z m 4.82042,7.677853 h -2.09524 V 52.317953 h 2.09524 z m 5.88913,-7.818473 q 1.589,0 2.5171,0.91403 0.92809,0.899968 0.92809,2.573346 v 1.012464 h -4.94983 q 0.0281,0.885906 0.5203,1.392139 0.50623,0.506232 1.39214,0.506232 0.74528,0 1.34995,-0.14062 0.60466,-0.154682 1.25152,-0.464046 v 1.61713 q -0.56248,0.28124 -1.19527,0.407798 -0.61873,0.14062 -1.50464,0.14062 -1.15308,0 -2.03899,-0.42186 -0.8859,-0.435922 -1.39214,-1.307766 -0.50623,-0.871845 -0.50623,-2.193673 0,-1.349952 0.44999,-2.235858 0.46404,-0.899968 1.27964,-1.349952 0.81559,-0.449984 1.89837,-0.449984 z m 0.0141,1.490572 q -0.60467,0 -1.01246,0.393736 -0.39374,0.393736 -0.46405,1.223394 h 2.93896 q -0.0141,-0.7031 -0.36561,-1.153084 -0.35155,-0.464046 -1.09684,-0.464046 z"
         id="text2"
         style="font-weight:bold;font-size:14.062px;line-height:16.0709px;font-family:Sans;-inkscape-font-specification:'Sans, Bold';letter-spacing:0.531509px;word-spacing:0.531509px;fill:#ffff00;fill-opacity:0.739094;stroke-width:0.531509"
         transform="scale(1.2036238,0.83082437)"
         aria-label="RS Module" />
      <g
         inkscape:groupmode="layer"
         id="layer3"
         inkscape:label="components">
        <ellipse
           style="fill:#0000ff;fill-opacity:0.01376086;stroke-width:0.479408"
           id="path4"
           cx="229.42953"
           cy="228.69356"
           rx="9.4775829"
           ry="6.3084369"
           inkscape:label="output"
           class="output" />
        <ellipse
           style="fill:#00ff00;fill-opacity:0.01458683;stroke-width:0.479408"
           id="path4-2"
           cx="156.89244"
           cy="228.69356"
           rx="9.4775829"
           ry="6.3084369"
           inkscape:label="input_signal"
           class="input" />
        <ellipse
           style="fill:#00ff00;fill-opacity:0.00572818;stroke-width:0.479408"
           id="path4-6"
           cx="81.937447"
           cy="228.69356"
           rx="9.4775829"
           ry="6.3084369"
           inkscape:label="input_noise"
           class="input" />
        <ellipse
           style="fill:#ff0000;fill-opacity:0.02823703;stroke-width:0.479423"
           id="path4-4"
           cx="81.938049"
           cy="178.62344"
           rx="9.4781799"
           ry="6.3084369"
           inkscape:label="threshold"
           class="params" />
        <ellipse
           style="fill:#ff0000;fill-opacity:0.02289845;stroke-width:0.479408"
           id="path4-1-1"
           cx="115.78809"
           cy="136.89835"
           rx="9.4775829"
           ry="6.3084369"
           inkscape:label="gain"
           class="params" />
        <ellipse
           style="fill:#ff0000;fill-opacity:0.02495425;stroke-width:0.479408"
           id="path4-1-1-3"
           cx="81.937447"
           cy="136.89835"
           rx="9.4775829"
           ry="6.3084369"
           inkscape:label="gain"
           class="params" />
      </g>
      <path
         d="m 69.45755,150.42482 h 1.948291 v 2.54723 q -0.385527,0.13081 -0.805477,0.20654 -0.413065,0.0757 -0.943165,0.0757 -1.101508,0 -1.693568,-0.64713 -0.59206,-0.64714 -0.59206,-1.88633 0,-0.77106 0.29603,-1.33558 0.302915,-0.56452 0.874322,-0.87432 0.571406,-0.3098 1.397537,-0.3098 0.392412,0 0.771055,0.0826 0.378643,0.0826 0.688442,0.22031 l -0.344221,0.83301 q -0.227186,-0.11704 -0.516332,-0.19276 -0.289145,-0.0757 -0.605829,-0.0757 -0.454371,0 -0.791708,0.20653 -0.330452,0.20653 -0.516331,0.58518 -0.178995,0.37175 -0.178995,0.8812 0,0.48191 0.130804,0.85367 0.130804,0.37176 0.413065,0.58518 0.282261,0.20653 0.736633,0.20653 0.220301,0 0.371758,-0.0207 0.158342,-0.0206 0.289146,-0.0482 v -1.02577 H 69.45755 Z m 5.098577,-1.07397 q 0.757286,0 1.156583,0.33045 0.40618,0.32357 0.40618,0.99824 v 2.50593 h -0.715979 l -0.199649,-0.50945 h -0.02754 q -0.240955,0.30292 -0.509447,0.44061 -0.268493,0.13768 -0.736633,0.13768 -0.502563,0 -0.833015,-0.28914 -0.330452,-0.29603 -0.330452,-0.90186 0,-0.59894 0.419949,-0.88121 0.41995,-0.28914 1.259849,-0.31668 l 0.65402,-0.0206 v -0.16523 q 0,-0.29603 -0.158341,-0.43372 -0.151458,-0.13769 -0.426835,-0.13769 -0.275376,0 -0.536984,0.0826 -0.261608,0.0757 -0.523216,0.19276 l -0.337337,-0.69532 q 0.302915,-0.15835 0.667789,-0.24784 0.371759,-0.0895 0.771055,-0.0895 z m 0.144573,2.10663 q -0.495678,0.0138 -0.688442,0.179 -0.192764,0.16522 -0.192764,0.43371 0,0.23407 0.137688,0.33734 0.137689,0.0964 0.35799,0.0964 0.330452,0 0.557638,-0.19276 0.227186,-0.19965 0.227186,-0.55764 v -0.3098 z m 3.508269,-3.50417 q 0.227186,0 0.392412,0.11015 0.165226,0.10327 0.165226,0.39241 0,0.28227 -0.165226,0.39242 -0.165226,0.11015 -0.392412,0.11015 -0.23407,0 -0.399296,-0.11015 -0.158342,-0.11015 -0.158342,-0.39242 0,-0.28914 0.158342,-0.39241 0.165226,-0.11015 0.399296,-0.11015 z m 0.509447,1.47327 v 3.75889 h -1.025778 v -3.75889 z m 3.728574,-0.0688 q 0.605829,0 0.970703,0.33046 0.364874,0.32356 0.364874,1.04643 v 2.45085 h -1.025778 v -2.19613 q 0,-0.40618 -0.144573,-0.60583 -0.144573,-0.20653 -0.461256,-0.20653 -0.468141,0 -0.640251,0.32357 -0.172111,0.31668 -0.172111,0.91562 v 1.7693 H 80.31282 v -3.75889 h 0.784824 l 0.137688,0.48191 h 0.05508 q 0.178995,-0.28915 0.488794,-0.41995 0.316684,-0.13081 0.667789,-0.13081 z m 6.511189,1.90699 -1.211658,-1.83814 h 1.163467 l 0.729748,1.19789 0.736633,-1.19789 h 1.163467 l -1.225427,1.83814 1.280502,1.92075 h -1.163466 l -0.791709,-1.28739 -0.791708,1.28739 h -1.163467 z"
         id="text6"
         style="font-weight:bold;font-size:6.88442px;line-height:5.90096px;font-family:Sans;-inkscape-font-specification:'Sans, Bold';letter-spacing:0.520431px;word-spacing:0.520431px;fill:#ffffff;fill-opacity:0.83007;stroke-width:0.520431"
         transform="scale(1.0196414,0.98073697)"
         aria-label="Gain x" />
      <path
         d="m 105.31759,147.88334 h 1.95884 v 1.902 q -0.38761,0.0977 -0.80984,0.15422 -0.4153,0.0565 -0.94827,0.0565 -1.10747,0 -1.70273,-0.48321 -0.59527,-0.48322 -0.59527,-1.40852 0,-0.57574 0.29763,-0.99726 0.30456,-0.42153 0.87906,-0.65286 0.5745,-0.23132 1.4051,-0.23132 0.39454,0 0.77523,0.0617 0.38069,0.0617 0.69217,0.16449 l -0.34608,0.62201 q -0.22842,-0.0874 -0.51913,-0.14393 -0.29071,-0.0565 -0.60911,-0.0565 -0.45683,0 -0.79599,0.15421 -0.33225,0.15422 -0.51913,0.43695 -0.17997,0.27759 -0.17997,0.65799 0,0.35984 0.13152,0.63743 0.13151,0.27759 0.4153,0.43694 0.28379,0.15422 0.74062,0.15422 0.22149,0 0.37377,-0.0154 0.1592,-0.0154 0.29071,-0.036 v -0.76594 h -0.93443 z m 5.12618,-0.80192 q 0.76139,0 1.16285,0.24674 0.40838,0.2416 0.40838,0.74538 v 1.87117 h -0.71986 l -0.20073,-0.3804 h -0.0277 q -0.24226,0.22618 -0.51221,0.32899 -0.26995,0.10281 -0.74062,0.10281 -0.50528,0 -0.83752,-0.2159 -0.33225,-0.22105 -0.33225,-0.67342 0,-0.44723 0.42223,-0.65799 0.42222,-0.2159 1.26667,-0.23646 l 0.65756,-0.0154 v -0.12337 q 0,-0.22104 -0.1592,-0.32385 -0.15228,-0.10281 -0.42915,-0.10281 -0.27686,0 -0.53989,0.0617 -0.26302,0.0565 -0.52605,0.14394 l -0.33916,-0.5192 q 0.30455,-0.11823 0.6714,-0.18506 0.37377,-0.0668 0.77523,-0.0668 z m 0.14536,1.573 q -0.49836,0.0103 -0.69217,0.13366 -0.19381,0.12337 -0.19381,0.32385 0,0.17478 0.13844,0.25189 0.13843,0.072 0.35992,0.072 0.33225,0 0.56066,-0.14394 0.22842,-0.14908 0.22842,-0.41639 v -0.23132 z m 3.52726,-2.61654 q 0.22842,0 0.39454,0.0822 0.16612,0.0771 0.16612,0.29301 0,0.21077 -0.16612,0.29302 -0.16612,0.0822 -0.39454,0.0822 -0.23534,0 -0.40146,-0.0822 -0.1592,-0.0822 -0.1592,-0.29302 0,-0.2159 0.1592,-0.29301 0.16612,-0.0822 0.40146,-0.0822 z m 0.51221,1.10008 v 2.80675 h -1.03134 v -2.80675 z m 3.74876,-0.0514 q 0.60911,0 0.97595,0.24675 0.36685,0.24161 0.36685,0.78136 v 1.83004 h -1.03133 v -1.63984 q 0,-0.30329 -0.14535,-0.45236 -0.14536,-0.15422 -0.46376,-0.15422 -0.47067,0 -0.64371,0.2416 -0.17305,0.23647 -0.17305,0.6837 v 1.32112 h -1.03133 v -2.80675 h 0.78908 l 0.13843,0.35984 h 0.0554 q 0.17997,-0.2159 0.49144,-0.31357 0.31839,-0.0977 0.6714,-0.0977 z m 5.23131,0.0514 h 1.12824 l 0.71293,1.57815 q 0.0554,0.11309 0.0831,0.23647 0.0277,0.11822 0.0416,0.25188 h 0.0208 q 0.0208,-0.13366 0.0553,-0.25188 0.0415,-0.12338 0.09,-0.23647 l 0.69909,-1.57815 h 1.10746 l -1.5989,3.16658 q -0.21458,0.43695 -0.62988,0.65285 -0.40838,0.22105 -0.94827,0.22105 -0.17304,0 -0.30456,-0.0154 -0.12459,-0.0103 -0.22149,-0.0257 v -0.60658 q 0.0761,0.0102 0.17996,0.0206 0.1107,0.0103 0.22843,0.0103 0.32531,0 0.5122,-0.14908 0.19381,-0.14394 0.28378,-0.34956 l 0.0623,-0.13879 z"
         id="text7"
         style="font-weight:bold;font-size:5.96501px;line-height:5.11289px;font-family:Sans;-inkscape-font-specification:'Sans, Bold';letter-spacing:0.450928px;word-spacing:0.450928px;fill:#ffffff;fill-opacity:0.83007;stroke-width:0.450928"
         aria-label="Gain y" />
      <rect
         style="fill:#ffffff;fill-opacity:0.01617375;stroke-width:0.531509"
         id="rect8"
         width="7.1081872"
         height="4.4392705"
         x="72.459869"
         y="160.63197"
         ry="0.23364583" />
      <rect
         style="fill:#ffffff;fill-opacity:0.00482406;stroke-width:0.531509"
         id="rect9"
         width="7.4466729"
         height="4.4392705"
         x="135.32535"
         y="160.63197"
         ry="0.23364583" />
      <g
         id="text9"
         style="font-weight:bold;font-size:5.02213px;line-height:4.30471px;font-family:Sans;-inkscape-font-specification:'Sans, Bold';letter-spacing:0.531509px;word-spacing:0.531509px;fill:#ffffff;fill-opacity:0.83007;stroke-width:0.531509"
         transform="matrix(1.4821442,0,0,1.0212022,-18.610608,-36.791379)"
         aria-label="Diode&#10;filter">
        <path
           d="m 78.651274,192.78874 q 0,0.909 -0.51728,1.37104 -0.512257,0.45701 -1.441351,0.45701 h -1.01447 v -3.5858 h 1.124957 q 0.562478,0 0.974293,0.20089 0.416837,0.20088 0.642833,0.59261 0.231018,0.3867 0.231018,0.96425 z m -0.788475,0.0201 q 0,-0.59763 -0.26115,-0.87385 -0.261151,-0.28124 -0.758342,-0.28124 h -0.406793 v 2.33529 h 0.326439 q 1.099846,0 1.099846,-1.1802 z m 2.379652,-2.00885 q 0.16573,0 0.286262,0.0804 0.120531,0.0753 0.120531,0.28626 0,0.2059 -0.120531,0.28626 -0.120532,0.0803 -0.286262,0.0803 -0.170752,0 -0.291283,-0.0803 -0.115509,-0.0804 -0.115509,-0.28626 0,-0.21093 0.115509,-0.28626 0.120531,-0.0804 0.291283,-0.0804 z m 0.371638,1.07474 v 2.74208 h -0.748298 v -2.74208 z m 3.805939,1.36602 q 0,0.68301 -0.361593,1.05464 -0.356572,0.37164 -0.974294,0.37164 -0.381681,0 -0.683009,-0.16573 -0.296306,-0.16573 -0.467058,-0.48212 -0.170753,-0.32142 -0.170753,-0.77843 0,-0.68301 0.356571,-1.04963 0.356572,-0.36661 0.979316,-0.36661 0.386704,0 0.683009,0.16573 0.296306,0.16573 0.467059,0.48212 0.170752,0.31137 0.170752,0.76839 z m -1.893343,0 q 0,0.40679 0.130575,0.61772 0.135598,0.20591 0.436926,0.20591 0.296305,0 0.426881,-0.20591 0.135597,-0.21093 0.135597,-0.61772 0,-0.4068 -0.135597,-0.60768 -0.130576,-0.20591 -0.431903,-0.20591 -0.296306,0 -0.431904,0.20591 -0.130575,0.20088 -0.130575,0.60768 z m 3.9114,1.42628 q -0.457014,0 -0.748297,-0.35657 -0.286262,-0.36159 -0.286262,-1.05967 0,-0.7031 0.291284,-1.06469 0.291283,-0.36159 0.763363,-0.36159 0.296306,0 0.487147,0.11551 0.190841,0.1155 0.301328,0.28626 h 0.02511 q -0.01507,-0.0804 -0.03516,-0.23102 -0.02009,-0.15569 -0.02009,-0.3164 v -0.87887 h 0.748297 v 3.81682 H 87.39229 l -0.145642,-0.35657 h -0.03013 q -0.110487,0.17075 -0.296306,0.29128 -0.185818,0.11551 -0.482124,0.11551 z m 0.261151,-0.59763 q 0.311372,0 0.436925,-0.1808 0.125553,-0.18582 0.130575,-0.55243 v -0.0804 q 0,-0.40177 -0.125553,-0.6127 -0.120531,-0.21093 -0.451992,-0.21093 -0.246084,0 -0.386704,0.21596 -0.140619,0.21093 -0.140619,0.6127 0,0.40177 0.140619,0.60767 0.14062,0.20089 0.396749,0.20089 z m 3.710514,-2.24489 q 0.5675,0 0.898961,0.32643 0.331461,0.32142 0.331461,0.91905 v 0.3616 h -1.76779 q 0.01004,0.31639 0.185819,0.49719 0.180796,0.1808 0.497191,0.1808 0.266172,0 0.482124,-0.0502 0.215952,-0.0552 0.44697,-0.16573 v 0.57755 q -0.200886,0.10044 -0.426881,0.14564 -0.220974,0.0502 -0.537368,0.0502 -0.411815,0 -0.728209,-0.15066 -0.316394,-0.15569 -0.497191,-0.46706 -0.180797,-0.31137 -0.180797,-0.78345 0,-0.48213 0.160708,-0.79852 0.165731,-0.32142 0.457014,-0.48213 0.291284,-0.1607 0.677988,-0.1607 z m 0.005,0.53234 q -0.215952,0 -0.361593,0.14062 -0.14062,0.14062 -0.165731,0.43693 h 1.049625 q -0.005,-0.25111 -0.130575,-0.41182 -0.125553,-0.16573 -0.391726,-0.16573 z"
           id="path15" />
        <path
           d="m 77.13459,196.7419 h -0.647854 v 2.1796 h -0.748298 v -2.1796 h -0.411814 v -0.3616 l 0.411814,-0.20088 v -0.20089 q 0,-0.35155 0.115509,-0.54239 0.120531,-0.19586 0.336483,-0.27621 0.220974,-0.0804 0.517279,-0.0804 0.220974,0 0.396749,0.0352 0.180796,0.0351 0.291283,0.0803 l -0.190841,0.54741 q -0.08538,-0.0251 -0.185819,-0.0452 -0.100442,-0.0251 -0.231018,-0.0251 -0.155686,0 -0.231018,0.0954 -0.07031,0.0954 -0.07031,0.24107 v 0.17075 h 0.647854 z m 0.803541,-1.63722 q 0.165731,0 0.286262,0.0804 0.120531,0.0753 0.120531,0.28626 0,0.2059 -0.120531,0.28626 -0.120531,0.0803 -0.286262,0.0803 -0.170752,0 -0.291283,-0.0803 -0.115509,-0.0804 -0.115509,-0.28626 0,-0.21093 0.115509,-0.28626 0.120531,-0.0804 0.291283,-0.0804 z m 0.371638,1.07474 v 2.74208 h -0.748298 v -2.74208 z m 2.594765,2.74208 h -0.748298 v -3.81682 h 0.748298 z m 2.470052,-0.54741 q 0.125554,0 0.241063,-0.0251 0.115509,-0.0251 0.231017,-0.0603 v 0.55746 q -0.120531,0.0502 -0.301327,0.0854 -0.175775,0.0402 -0.386704,0.0402 -0.246085,0 -0.441948,-0.0804 -0.190841,-0.0804 -0.30635,-0.27622 -0.110487,-0.20088 -0.110487,-0.55243 v -1.32082 h -0.356571 v -0.3164 l 0.411815,-0.2511 0.215951,-0.57755 h 0.477103 v 0.58257 h 0.768386 v 0.56248 h -0.768386 v 1.32082 q 0,0.15568 0.0904,0.23604 0.0904,0.0753 0.23604,0.0753 z m 2.686003,-2.24489 q 0.5675,0 0.898961,0.32643 0.33146,0.32142 0.33146,0.91905 v 0.3616 h -1.767789 q 0.01004,0.31639 0.185819,0.49719 0.180796,0.1808 0.49719,0.1808 0.266173,0 0.482125,-0.0502 0.215951,-0.0552 0.446969,-0.16573 v 0.57755 q -0.200885,0.10044 -0.426881,0.14564 -0.220973,0.0502 -0.537368,0.0502 -0.411814,0 -0.728208,-0.15066 -0.316395,-0.15569 -0.497191,-0.46706 -0.180797,-0.31137 -0.180797,-0.78345 0,-0.48213 0.160708,-0.79852 0.165731,-0.32142 0.457014,-0.48213 0.291284,-0.1607 0.677988,-0.1607 z m 0.005,0.53234 q -0.215952,0 -0.361594,0.14062 -0.140619,0.14062 -0.16573,0.43693 h 1.049625 q -0.005,-0.25111 -0.130575,-0.41182 -0.125553,-0.16573 -0.391726,-0.16573 z m 3.896334,-0.53234 q 0.05524,0 0.130575,0.005 0.07533,0.005 0.120532,0.0151 l -0.05524,0.7031 q -0.03516,-0.01 -0.105465,-0.0151 -0.06529,-0.0101 -0.115509,-0.0101 -0.19084,0 -0.366615,0.0703 -0.175775,0.0653 -0.286261,0.21595 -0.105465,0.15067 -0.105465,0.41182 v 1.39615 h -0.748298 v -2.74208 h 0.567501 l 0.110487,0.46203 h 0.03516 q 0.120531,-0.21093 0.33146,-0.36159 0.21093,-0.15066 0.487147,-0.15066 z"
           id="path16" />
      </g>
      <g
         id="text11"
         style="font-weight:bold;font-size:5.02213px;line-height:4.30471px;font-family:Sans;-inkscape-font-specification:'Sans, Bold';letter-spacing:0.531509px;word-spacing:0.531509px;fill:#ffffff;fill-opacity:0.83007;stroke-width:0.531509"
         transform="matrix(1.3059298,0,0,0.99261034,-6.9869815,-31.011411)"
         aria-label="Bistable &#10;filter">
        <path
           d="m 126.00688,190.46857 q 0.71817,0 1.08478,0.20088 0.36662,0.20089 0.36662,0.70812 0,0.30635 -0.14564,0.51728 -0.14062,0.21093 -0.40679,0.25613 v 0.0251 q 0.18079,0.0352 0.32643,0.12555 0.14565,0.0904 0.23102,0.26115 0.0854,0.17076 0.0854,0.452 0,0.48714 -0.35155,0.76336 -0.35155,0.27622 -0.96425,0.27622 h -1.34091 v -3.5858 z m 0.0854,1.42126 q 0.33146,0 0.45701,-0.10547 0.13058,-0.10546 0.13058,-0.30635 0,-0.2059 -0.15066,-0.2963 -0.15067,-0.0904 -0.47711,-0.0904 h -0.40177 v 0.79852 z m -0.44195,0.60265 v 0.93412 h 0.49719 q 0.34151,0 0.47711,-0.13057 0.13559,-0.1356 0.13559,-0.35658 0,-0.20088 -0.14062,-0.32141 -0.13559,-0.12556 -0.49719,-0.12556 z m 3.46444,-2.25493 q 0.16573,0 0.28626,0.0804 0.12053,0.0753 0.12053,0.28626 0,0.20591 -0.12053,0.28627 -0.12053,0.0803 -0.28626,0.0803 -0.17075,0 -0.29128,-0.0803 -0.11551,-0.0804 -0.11551,-0.28627 0,-0.21093 0.11551,-0.28626 0.12053,-0.0804 0.29128,-0.0804 z m 0.37164,1.07473 v 2.74209 h -0.7483 v -2.74209 z m 3.22839,1.9285 q 0,0.41684 -0.2963,0.64283 -0.29129,0.22098 -0.87385,0.22098 -0.28627,0 -0.49217,-0.0402 -0.20591,-0.0352 -0.41182,-0.12053 v -0.61772 q 0.22098,0.10044 0.4771,0.16573 0.25613,0.0653 0.452,0.0653 0.22097,0 0.31137,-0.0653 0.0954,-0.0653 0.0954,-0.17075 0,-0.0703 -0.0402,-0.12556 -0.0352,-0.0552 -0.16071,-0.12555 -0.12555,-0.0703 -0.39172,-0.1808 -0.25613,-0.11048 -0.42186,-0.21595 -0.16573,-0.11049 -0.24609,-0.26115 -0.0804,-0.15569 -0.0804,-0.3867 0,-0.38169 0.29631,-0.57253 0.2963,-0.19084 0.78847,-0.19084 0.25613,0 0.48715,0.0502 0.23102,0.0502 0.4771,0.16573 l -0.226,0.53737 q -0.20088,-0.0854 -0.38168,-0.14062 -0.18079,-0.0603 -0.36661,-0.0603 -0.33146,0 -0.33146,0.18079 0,0.0653 0.0402,0.12053 0.0452,0.0502 0.16573,0.11049 0.12556,0.0603 0.36662,0.16071 0.23604,0.0954 0.40679,0.20089 0.17075,0.10044 0.26115,0.25612 0.0954,0.15067 0.0954,0.39675 z m 2.26917,0.26617 q 0.12555,0 0.24106,-0.0251 0.11551,-0.0251 0.23102,-0.0603 v 0.55746 q -0.12053,0.0502 -0.30133,0.0854 -0.17578,0.0402 -0.3867,0.0402 -0.24609,0 -0.44195,-0.0804 -0.19084,-0.0803 -0.30635,-0.27621 -0.11049,-0.20089 -0.11049,-0.55244 v -1.32082 h -0.35657 v -0.31639 l 0.41181,-0.25111 0.21596,-0.57754 h 0.4771 v 0.58256 h 0.76838 v 0.56248 h -0.76838 v 1.32082 q 0,0.15569 0.0904,0.23604 0.0904,0.0753 0.23604,0.0753 z m 2.68098,-2.24991 q 0.55243,0 0.84372,0.24106 0.2963,0.23604 0.2963,0.72821 v 1.82806 h -0.5223 l -0.14564,-0.37164 h -0.0201 q -0.17577,0.22097 -0.37164,0.32142 -0.19586,0.10044 -0.53737,0.10044 -0.36661,0 -0.60767,-0.21093 -0.24107,-0.21595 -0.24107,-0.6579 0,-0.43693 0.30635,-0.64283 0.30635,-0.21093 0.91905,-0.23102 l 0.47711,-0.0151 v -0.12053 q 0,-0.21595 -0.11551,-0.31639 -0.11049,-0.10045 -0.31137,-0.10045 -0.20089,0 -0.39173,0.0603 -0.19084,0.0552 -0.38168,0.14062 l -0.24609,-0.50723 q 0.22098,-0.11551 0.48715,-0.1808 0.27119,-0.0653 0.56248,-0.0653 z m 0.10546,1.53677 q -0.36159,0.01 -0.50221,0.13058 -0.14062,0.12053 -0.14062,0.31639 0,0.17075 0.10044,0.24609 0.10045,0.0703 0.26115,0.0703 0.24107,0 0.4068,-0.14062 0.16573,-0.14565 0.16573,-0.4068 v -0.22599 z m 3.08275,-1.66734 q 0,0.15568 -0.01,0.30635 -0.01,0.15066 -0.0201,0.23604 h 0.0301 q 0.11049,-0.17076 0.29631,-0.28627 0.18582,-0.12053 0.48212,-0.12053 0.46204,0 0.7483,0.3616 0.28626,0.35657 0.28626,1.05464 0,0.7031 -0.29128,1.0647 -0.29128,0.36159 -0.76336,0.36159 -0.30133,0 -0.47711,-0.10547 -0.17075,-0.11048 -0.28124,-0.24608 h -0.0502 l -0.12555,0.30133 h -0.57252 v -3.81682 h 0.74829 z m 0.53737,0.73323 q -0.29128,0 -0.41181,0.18079 -0.11551,0.1808 -0.12556,0.55244 v 0.0804 q 0,0.39675 0.11551,0.6127 0.12053,0.21093 0.43191,0.21093 0.23101,0 0.36661,-0.21093 0.1356,-0.21595 0.1356,-0.61772 0,-0.40177 -0.14062,-0.60266 -0.1356,-0.2059 -0.37164,-0.2059 z m 3.17315,2.19467 h -0.7483 v -3.81682 h 0.7483 z m 2.44494,-2.79231 q 0.5675,0 0.89896,0.32644 0.33146,0.32142 0.33146,0.91905 v 0.36159 h -1.76779 q 0.0101,0.3164 0.18582,0.4972 0.1808,0.18079 0.49719,0.18079 0.26617,0 0.48213,-0.0502 0.21595,-0.0552 0.44697,-0.16573 v 0.57755 q -0.20089,0.10044 -0.42689,0.14564 -0.22097,0.0502 -0.53736,0.0502 -0.41182,0 -0.72821,-0.15067 -0.3164,-0.15568 -0.49719,-0.46705 -0.1808,-0.31138 -0.1808,-0.78346 0,-0.48212 0.16071,-0.79851 0.16573,-0.32142 0.45701,-0.48213 0.29129,-0.16071 0.67799,-0.16071 z m 0.005,0.53235 q -0.21595,0 -0.36159,0.14062 -0.14062,0.14062 -0.16573,0.43692 h 1.04962 q -0.005,-0.2511 -0.13057,-0.41181 -0.12555,-0.16573 -0.39173,-0.16573 z"
           id="path17" />
        <path
           d="m 126.34839,196.17947 h -0.64786 v 2.17961 h -0.74829 v -2.17961 h -0.41182 v -0.36159 l 0.41182,-0.20089 v -0.20088 q 0,-0.35155 0.11551,-0.54239 0.12053,-0.19586 0.33648,-0.27622 0.22097,-0.0804 0.51728,-0.0804 0.22097,0 0.39675,0.0352 0.18079,0.0352 0.29128,0.0804 l -0.19084,0.54741 q -0.0854,-0.0251 -0.18582,-0.0452 -0.10044,-0.0251 -0.23102,-0.0251 -0.15568,0 -0.23102,0.0954 -0.0703,0.0954 -0.0703,0.24106 v 0.17075 h 0.64786 z m 0.80354,-1.63721 q 0.16573,0 0.28626,0.0804 0.12053,0.0753 0.12053,0.28626 0,0.20591 -0.12053,0.28627 -0.12053,0.0803 -0.28626,0.0803 -0.17075,0 -0.29128,-0.0803 -0.11551,-0.0804 -0.11551,-0.28627 0,-0.21093 0.11551,-0.28626 0.12053,-0.0804 0.29128,-0.0804 z m 0.37164,1.07473 v 2.74209 h -0.7483 v -2.74209 z m 2.59476,2.74209 h -0.7483 v -3.81682 h 0.7483 z m 2.47005,-0.54742 q 0.12556,0 0.24107,-0.0251 0.11551,-0.0251 0.23102,-0.0603 v 0.55745 q -0.12054,0.0502 -0.30133,0.0854 -0.17578,0.0402 -0.38671,0.0402 -0.24608,0 -0.44194,-0.0804 -0.19085,-0.0803 -0.30635,-0.27621 -0.11049,-0.20089 -0.11049,-0.55244 v -1.32082 h -0.35657 v -0.31639 l 0.41181,-0.25111 0.21595,-0.57754 h 0.47711 v 0.58256 h 0.76838 v 0.56248 h -0.76838 v 1.32082 q 0,0.15569 0.0904,0.23604 0.0904,0.0753 0.23604,0.0753 z m 2.68601,-2.24489 q 0.5675,0 0.89896,0.32644 0.33146,0.32142 0.33146,0.91905 v 0.36159 h -1.76779 q 0.01,0.3164 0.18582,0.4972 0.18079,0.18079 0.49719,0.18079 0.26617,0 0.48212,-0.0502 0.21595,-0.0552 0.44697,-0.16573 v 0.57755 q -0.20088,0.10044 -0.42688,0.14564 -0.22097,0.0502 -0.53737,0.0502 -0.41181,0 -0.7282,-0.15067 -0.3164,-0.15568 -0.4972,-0.46705 -0.18079,-0.31138 -0.18079,-0.78346 0,-0.48212 0.16071,-0.79851 0.16573,-0.32142 0.45701,-0.48213 0.29128,-0.16071 0.67799,-0.16071 z m 0.005,0.53235 q -0.21595,0 -0.36159,0.14062 -0.14062,0.14062 -0.16573,0.43692 h 1.04962 q -0.005,-0.2511 -0.13057,-0.41181 -0.12556,-0.16573 -0.39173,-0.16573 z m 3.89633,-0.53235 q 0.0553,0 0.13058,0.005 0.0753,0.005 0.12053,0.0151 l -0.0552,0.7031 q -0.0352,-0.01 -0.10547,-0.0151 -0.0653,-0.01 -0.11551,-0.01 -0.19084,0 -0.36661,0.0703 -0.17578,0.0653 -0.28626,0.21595 -0.10547,0.15066 -0.10547,0.41181 v 1.39616 h -0.7483 V 195.617 h 0.5675 l 0.11049,0.46204 h 0.0352 q 0.12053,-0.21093 0.33146,-0.36159 0.21093,-0.15067 0.48714,-0.15067 z"
           id="path18" />
      </g>
      <path
         d="m 143.65621,192.76729 h -1.04573 l -1.00344,-1.12658 -1.00342,1.12658 h -0.97926 l 1.43261,-1.53549 -1.34194,-1.44368 h 1.00948 l 0.93089,1.07232 0.91276,-1.07232 h 0.9853 l -1.35403,1.47706 z m 2.01191,-2.43257 q 0,0.12934 -0.012,0.25452 -0.012,0.12517 -0.0242,0.19611 h 0.0362 q 0.13297,-0.14187 0.35663,-0.23784 0.22366,-0.10014 0.5803,-0.10014 0.55611,0 0.90066,0.30042 0.34455,0.29625 0.34455,0.87622 0,0.58416 -0.35059,0.88458 -0.35059,0.30042 -0.9188,0.30042 -0.36269,0 -0.57426,-0.0876 -0.20552,-0.0918 -0.33849,-0.20445 h -0.0604 l -0.15111,0.25036 h -0.6891 v -3.17111 h 0.90067 z m 0.64678,0.60918 q -0.3506,0 -0.49567,0.15021 -0.13903,0.15021 -0.15111,0.45898 v 0.0668 q 0,0.32963 0.13901,0.50905 0.14509,0.17525 0.51986,0.17525 0.27806,0 0.44126,-0.17525 0.16321,-0.17942 0.16321,-0.51322 0,-0.3338 -0.16925,-0.5007 -0.16321,-0.17107 -0.44731,-0.17107 z"
         id="text13"
         style="font-weight:bold;font-size:5.02213px;line-height:4.30471px;font-family:Sans;-inkscape-font-specification:'Sans, Bold';letter-spacing:0.531509px;word-spacing:0.531509px;fill:#ffffff;fill-opacity:0.83007;stroke-width:0.531509"
         aria-label="Xb" />
      <path
         d="m 144.54743,230.2682 q 0.12555,0 0.24106,-0.0251 0.11551,-0.0251 0.23102,-0.0603 v 0.55746 q -0.12053,0.0502 -0.30133,0.0854 -0.17578,0.0402 -0.38671,0.0402 -0.24608,0 -0.44194,-0.0803 -0.19084,-0.0804 -0.30635,-0.27622 -0.11049,-0.20088 -0.11049,-0.55243 v -1.32082 h -0.35657 v -0.3164 l 0.41181,-0.2511 0.21596,-0.57755 h 0.4771 v 0.58257 h 0.76838 v 0.56248 h -0.76838 v 1.32082 q 0,0.15568 0.0904,0.23604 0.0904,0.0753 0.23604,0.0753 z m 2.68098,-2.24991 q 0.55243,0 0.84371,0.24106 0.29631,0.23604 0.29631,0.72821 v 1.82805 h -0.5223 l -0.14564,-0.37163 h -0.0201 q -0.17578,0.22097 -0.37164,0.32141 -0.19586,0.10044 -0.53737,0.10044 -0.36661,0 -0.60767,-0.21093 -0.24107,-0.21595 -0.24107,-0.65789 0,-0.43693 0.30635,-0.64284 0.30635,-0.21093 0.91905,-0.23102 l 0.47711,-0.0151 v -0.12053 q 0,-0.21595 -0.11551,-0.3164 -0.11049,-0.10044 -0.31138,-0.10044 -0.20088,0 -0.39172,0.0603 -0.19084,0.0552 -0.38168,0.14062 l -0.24609,-0.50724 q 0.22098,-0.11551 0.48715,-0.1808 0.27119,-0.0653 0.56248,-0.0653 z m 0.10546,1.53677 q -0.36159,0.01 -0.50221,0.13057 -0.14062,0.12053 -0.14062,0.3164 0,0.17075 0.10044,0.24608 0.10044,0.0703 0.26115,0.0703 0.24106,0 0.4068,-0.14062 0.16573,-0.14564 0.16573,-0.40679 v -0.226 z m 4.85054,-1.48153 v 2.74208 h -0.57252 l -0.10044,-0.35155 h -0.0402 q -0.13057,0.21093 -0.36159,0.30635 -0.226,0.0954 -0.48213,0.0954 -0.44194,0 -0.70812,-0.23604 -0.26617,-0.24106 -0.26617,-0.76838 v -1.78788 h 0.7483 v 1.60206 q 0,0.29128 0.10546,0.44195 0.10547,0.15066 0.33648,0.15066 0.34151,0 0.46706,-0.23102 0.12556,-0.23604 0.12556,-0.67296 v -1.29069 z"
         id="text19"
         style="font-weight:bold;font-size:5.02213px;line-height:4.30471px;font-family:Sans;-inkscape-font-specification:'Sans, Bold';letter-spacing:0.531509px;word-spacing:0.531509px;fill:#ffffff;fill-opacity:0.896315;stroke-width:0.531509"
         transform="scale(1.2036238,0.83082438)"
         aria-label="tau" />
    </g>
  </g>
</svg>
